<svg width="32" height="32" viewBox="0 0 32 32" fill="none" xmlns="http://www.w3.org/2000/svg">
<path d="M19.9957 29.12C19.6181 28.4011 19.2149 27.3557 19.4368 26.7307C19.5417 26.366 19.7702 26.0492 20.0832 25.8347C20.4907 25.5019 21.0496 25.0475 21.4933 23.8955C21.664 23.4496 21.7771 23.0016 21.8837 22.5707C22.2763 21.0027 22.4171 20.7616 23.5541 20.8917C24.4075 20.9941 24.9365 21.4037 25.5488 21.8795C26.1504 22.3467 26.8352 22.8416 27.776 23.0037C26.032 25.9374 23.2586 28.1169 19.9957 29.1179M4.2368 23.0272C5.2288 22.9077 6.31253 22.5621 7.08693 21.7173C7.9424 20.7829 7.9488 19.5627 7.95307 18.5856C7.95947 17.2523 8.03413 16.8853 8.70827 16.6336C9.62987 16.2923 10.048 16.6187 10.9141 17.3867C11.4219 17.8389 11.9979 18.3509 12.7637 18.5856C13.6661 18.8629 14.7477 18.7349 15.6523 18.2379C16.5547 17.7472 17.2245 16.9131 17.5083 15.9232H17.5147L17.5232 15.8912L17.5317 15.8656C17.5424 15.8315 17.5424 15.8016 17.5531 15.7675C17.6192 15.5349 17.6661 15.3003 17.696 15.0677C17.7109 14.9632 17.7173 14.8693 17.7237 14.7691C17.7301 14.688 17.7408 14.6069 17.7451 14.528C17.7725 14.0017 17.7625 13.4742 17.7152 12.9493C17.6957 12.7172 17.6829 12.4846 17.6768 12.2517C17.6716 12.0366 17.7254 11.8241 17.8325 11.6373C18.0203 11.5477 18.5195 11.4581 18.8629 11.3984C19.8165 11.2299 20.9835 11.0165 21.6875 10.1888L21.6981 10.1824H21.696C21.7387 10.1312 21.7835 10.0885 21.8219 10.0331C23.0123 8.35627 22.9397 6.62187 21.6341 5.50827C21.5305 5.42367 21.423 5.34394 21.312 5.26933C20.544 4.736 20.2155 4.3584 20.4395 3.66507C20.5056 3.456 20.5781 3.27467 20.6485 3.1104C23.3021 4.06538 25.5966 5.81551 27.2191 8.12219C28.8416 10.4289 29.7133 13.1798 29.7152 16C29.7152 17.6512 29.4059 19.2277 28.8725 20.6933C28.7077 20.743 28.5383 20.7759 28.3669 20.7915C27.8976 20.7915 27.5563 20.5461 26.9504 20.0725C26.2165 19.5029 25.3035 18.7968 23.8208 18.6219C20.6251 18.2421 20.0213 20.6059 19.6672 22.0139C19.5776 22.3744 19.4901 22.7392 19.3579 23.0763C19.1339 23.6608 18.9483 23.8123 18.6389 24.064C18.2379 24.3925 17.6875 24.8405 17.2864 25.9627C16.8384 27.2064 17.2459 28.5995 17.6917 29.5979C17.1371 29.6683 16.5739 29.7152 16 29.7152C13.6283 29.7141 11.2976 29.0972 9.23597 27.9249C7.17434 26.7525 5.45247 25.0649 4.23893 23.0272M15.9979 2.2848C16.8299 2.2848 17.6384 2.37013 18.4277 2.51307C18.3678 2.66119 18.3131 2.81132 18.2635 2.9632C17.4805 5.3888 19.3835 6.71147 20.0064 7.14453L20.1493 7.2448C20.288 7.36427 20.6421 7.68213 20.0213 8.6144C19.7995 8.80427 19.5733 8.8384 19.0187 8.864C18.2763 8.90027 17.1563 8.9536 16.1621 10.0587L16.1579 10.0651L16.1557 10.0672L16.1429 10.0779C16.1216 10.1013 16.1088 10.1269 16.0896 10.1504C15.5627 10.7691 15.4133 11.4453 15.3963 12.1088C15.3808 12.5428 15.3908 12.9773 15.4261 13.4101C15.4539 13.8688 15.4795 14.3083 15.4411 14.6987C15.4169 14.888 15.3799 15.0755 15.3301 15.2597C15.2738 15.4665 15.1757 15.6596 15.0417 15.8269C14.9078 15.9943 14.7409 16.1323 14.5515 16.2325C14.1888 16.4331 13.7472 16.4992 13.4379 16.4032C13.1456 16.3115 12.7979 16.0043 12.4288 15.6779C11.5243 14.8736 10.1547 13.6576 7.9104 14.4917C5.6832 15.3237 5.67467 17.2779 5.66827 18.5728C5.664 19.2512 5.65973 19.8912 5.4016 20.1728C4.92373 20.6955 3.94453 20.8064 3.1616 20.7872C2.58536 19.2568 2.28909 17.6353 2.28693 16C2.28693 12.3629 3.73163 8.87468 6.30327 6.30264C8.87491 3.73061 12.3629 2.28537 16 2.2848M16 0C7.17653 0 0 7.17653 0 16C0 24.8235 7.17653 32 16 32C24.8235 32 32 24.8235 32 16C32 7.17653 24.8235 0 16 0Z" fill="#181818"/>
</svg>
