<svg width="83" height="83" viewBox="0 0 83 83" fill="none" xmlns="http://www.w3.org/2000/svg">
<rect width="83" height="83" rx="18" fill="white"/>
<circle cx="41.5" cy="42.5" r="29.5" stroke="#DDDDDD" stroke-width="2"/>
<path d="M71 42.4999C71 49.1494 68.7534 55.6039 64.6247 60.8164C60.496 66.0289 54.7274 69.6937 48.2545 71.2162C41.7816 72.7387 34.9842 72.0297 28.9648 69.2042C22.9455 66.3786 18.0573 61.6023 15.0931 55.65C12.129 49.6977 11.2628 42.9185 12.635 36.4121C14.0073 29.9057 17.5375 24.0537 22.653 19.8054C27.7685 15.5572 34.1692 13.1618 40.817 13.0078" stroke="#040404" stroke-width="2" stroke-linecap="round"/>
<path d="M48.3291 29.0045C54.3067 29.156 59.2691 33.3914 60.5307 39.0249H53.9424C52.8865 36.8025 50.6221 35.2657 47.9981 35.2656C44.3649 35.2656 41.4196 38.2109 41.4196 41.844C41.4199 45.4769 44.3651 48.4224 47.9981 48.4225C50.6217 48.4223 52.8863 46.8858 53.9424 44.6639H60.5307C59.2453 50.4004 54.1223 54.6871 47.9981 54.6873L47.6662 54.6835C40.8363 54.5104 35.3317 49.005 35.1586 42.1751L35.1541 41.844C35.1541 34.7507 40.9048 29.0001 47.9981 29L48.3291 29.0045Z" fill="#F79F1B"/>
<path d="M35.1751 29.317C37.3592 29.3724 39.4078 29.9728 41.1899 30.9876C40.6184 31.3429 40.0676 31.7472 39.5443 32.2021L39.2973 32.4218C38.1964 33.429 37.3131 34.5851 36.6479 35.8304C36.0746 35.6672 35.4697 35.5781 34.844 35.5781C31.2108 35.5781 28.2655 38.5234 28.2655 42.1565C28.2657 45.7896 31.2109 48.735 34.844 48.735C38.4227 48.7348 41.3317 45.8767 41.4179 42.3187L41.4255 42.327C41.423 42.2919 41.4222 42.2568 41.4202 42.2217C41.4204 42.2 41.4225 42.1783 41.4225 42.1565C41.4225 42.0314 41.418 41.9072 41.4111 41.7838C41.4308 40.0423 42.1408 38.3133 43.5272 37.0448C44.2395 36.3931 45.0575 35.9303 45.9198 35.6516C47.0427 37.5594 47.6873 39.7826 47.6873 42.1565L47.6835 42.4876C47.5077 49.4277 41.8264 54.9996 34.844 54.9998L34.5122 54.996C27.6821 54.823 22.1775 49.3177 22.0045 42.4876L22 42.1565C22 35.0632 27.7506 29.3125 34.844 29.3125L35.1751 29.317Z" fill="url(#paint0_linear_8538_10748)"/>
<defs>
<linearGradient id="paint0_linear_8538_10748" x1="22" y1="42.1562" x2="47.6873" y2="42.1562" gradientUnits="userSpaceOnUse">
<stop stop-color="#EB001B"/>
<stop offset="0.890885" stop-color="#FE5F00"/>
</linearGradient>
</defs>
</svg>
