<svg width="36" height="36" viewBox="0 0 36 36" fill="none" xmlns="http://www.w3.org/2000/svg">
<path d="M14.1016 30.6055C14.1016 32.7598 15.8479 34.5061 18.0019 34.5061C20.1565 34.5061 21.9028 32.7598 21.9028 30.6055C21.9156 30.6292 14.1265 30.6119 14.1016 30.6055Z" fill="black"/>
<path d="M28.8644 20.9157C28.8471 20.8144 28.8309 20.7047 28.8157 20.5875C28.7248 19.8835 28.6928 19.144 28.6928 18.6881V15.5609C28.6928 11.1961 26.3159 7.29306 22.6963 5.4167C22.0749 3.43115 20.1985 2 18.002 2C15.7945 2 13.9077 3.44658 13.2977 5.45135C9.75099 7.36026 7.31164 11.2735 7.31164 15.5604V18.6565C7.31164 19.1188 7.28007 19.8662 7.18964 20.5789C7.17494 20.6952 7.15878 20.8044 7.14242 20.9055C5.89474 21.4944 5 22.7681 5 24.2793C5 26.3569 6.69744 28.0043 8.75634 28.0043H18.002H26.0923H27.2482C29.3104 28.0043 31.0045 26.3527 31.0045 24.2793C31.0045 22.7835 30.1249 21.5116 28.8644 20.9157ZM27.2481 25.404H26.0923H18.002H8.75631C8.11764 25.404 7.60049 24.9046 7.60049 24.2792C7.60049 23.6584 8.11433 23.1552 8.78599 23.1552C9.91216 23.116 9.91216 18.6565 9.91216 18.6565V15.5604C9.91216 11.6275 12.5305 8.30318 15.7221 7.22093C15.7013 7.10036 15.6906 6.97599 15.6906 6.84951C15.6906 5.60704 16.7284 4.60027 18.002 4.60027C19.2788 4.60027 20.3139 5.60991 20.3139 6.84951C20.3139 6.97481 20.3032 7.09823 20.2828 7.21832C23.6442 8.29726 26.0923 11.6233 26.0923 15.5609V18.6881C26.0923 18.6881 26.0923 23.1552 27.2481 23.1552C27.8868 23.1552 28.4039 23.6541 28.4039 24.2792C28.404 24.9004 27.8897 25.404 27.2481 25.404Z" fill="black"/>
</svg>
