<svg width="28" height="29" viewBox="0 0 28 29" fill="none" xmlns="http://www.w3.org/2000/svg">
<rect y="0.5" width="28" height="28" rx="14" fill="#F0F0F0"/>
<g clip-path="url(#clip0_7442_7204)">
<path d="M14.0854 19.1422C14.155 19.1422 14.224 19.1286 14.2884 19.102C14.3527 19.0754 14.4112 19.0364 14.4605 18.9872C14.5097 18.9379 14.5488 18.8795 14.5755 18.8152C14.6021 18.7508 14.6158 18.6819 14.6158 18.6123V16.0906H17.3537C17.4943 16.0906 17.6293 16.0348 17.7287 15.9353C17.8282 15.8358 17.8841 15.7009 17.8841 15.5602C17.8841 15.4195 17.8282 15.2846 17.7287 15.1851C17.6293 15.0856 17.4943 15.0298 17.3537 15.0298H14.6158V13.5674H17.3537C17.4915 13.563 17.6222 13.5051 17.7181 13.4061C17.814 13.307 17.8677 13.1746 17.8677 13.0367C17.8677 12.8988 17.814 12.7663 17.7181 12.6673C17.6222 12.5682 17.4915 12.5104 17.3537 12.506H15.1885L16.9337 10.7613C16.983 10.712 17.0221 10.6535 17.0488 10.5892C17.0754 10.5248 17.0892 10.4558 17.0892 10.3861C17.0892 10.3164 17.0754 10.2474 17.0488 10.183C17.0221 10.1187 16.983 10.0602 16.9337 10.0109C16.8845 9.96161 16.826 9.92253 16.7616 9.89586C16.6972 9.86919 16.6282 9.85547 16.5585 9.85547C16.4889 9.85547 16.4199 9.86919 16.3555 9.89586C16.2911 9.92253 16.2326 9.96161 16.1833 10.0109L14.1548 12.0389L12.1256 10.0109C12.026 9.91143 11.891 9.85557 11.7502 9.85557C11.6094 9.85557 11.4743 9.91143 11.3747 10.0109C11.3253 10.0601 11.286 10.1185 11.2593 10.1829C11.2325 10.2473 11.2187 10.3164 11.2187 10.3861C11.2187 10.4558 11.2325 10.5249 11.2593 10.5893C11.286 10.6536 11.3253 10.7121 11.3747 10.7613L13.1193 12.506H10.8041C10.6634 12.506 10.5284 12.5619 10.4289 12.6614C10.3294 12.7609 10.2734 12.8959 10.2734 13.0367C10.2734 13.1774 10.3294 13.3124 10.4289 13.4119C10.5284 13.5115 10.6634 13.5674 10.8041 13.5674H13.5544V15.0298H10.8041C10.6676 15.0359 10.5387 15.0945 10.4443 15.1933C10.3498 15.2921 10.2971 15.4235 10.2971 15.5602C10.2971 15.6969 10.3498 15.8283 10.4443 15.9271C10.5387 16.0259 10.6676 16.0845 10.8041 16.0906H13.5544V18.6123C13.5544 18.9048 13.7923 19.1422 14.0854 19.1422Z" fill="#040000"/>
<path d="M22.4432 22.1348L19.6696 19.3835C19.6158 19.3299 19.5519 19.2874 19.4816 19.2586C19.4114 19.2298 19.3361 19.2153 19.2601 19.2157C19.1841 19.2162 19.109 19.2316 19.0391 19.2613C18.9691 19.2909 18.9058 19.3341 18.8526 19.3883C18.7991 19.4421 18.7567 19.5058 18.7279 19.5759C18.6991 19.6461 18.6845 19.7212 18.6848 19.797C18.6851 19.8728 18.7003 19.9478 18.7297 20.0177C18.7591 20.0876 18.8019 20.151 18.8558 20.2043L20.6677 22.001H13.9995C9.8573 22.001 6.48881 18.633 6.48881 14.4936C6.48881 10.3546 9.85784 6.98665 13.9995 6.98665C18.1406 6.98665 21.5097 10.3546 21.5097 14.4936C21.5143 14.6435 21.577 14.7857 21.6847 14.8901C21.7924 14.9945 21.9365 15.0529 22.0864 15.0529C22.2364 15.0529 22.3805 14.9945 22.4882 14.8901C22.5958 14.7857 22.6586 14.6435 22.6632 14.4936C22.6632 9.71742 18.7756 5.83203 13.9984 5.83203C9.22012 5.83203 5.33203 9.71742 5.33203 14.4936C5.33203 19.2713 9.22012 23.1567 13.9984 23.1567H22.0336C22.0477 23.1567 22.0623 23.1643 22.0769 23.1643C22.2243 23.1643 22.3744 23.1068 22.4876 22.9947L22.4898 22.9898C22.5966 22.8852 22.6632 22.74 22.6632 22.5791C22.6631 22.4931 22.6432 22.4083 22.6051 22.3313C22.5669 22.2542 22.5115 22.187 22.4432 22.1348Z" fill="#040000"/>
</g>
<defs>
<clipPath id="clip0_7442_7204">
<rect width="17.3333" height="17.3333" fill="white" transform="translate(5.33203 5.83203)"/>
</clipPath>
</defs>
</svg>
