<svg width="28" height="29" viewBox="0 0 28 29" fill="none" xmlns="http://www.w3.org/2000/svg">
<rect y="0.5" width="28" height="28" rx="14" fill="#F0F0F0"/>
<path d="M19.7275 22.5686C19.3895 22.5686 19.0645 22.4342 18.8175 22.1829L14.3715 18.0922L14.3455 18.0662C14.2415 17.9579 14.1029 17.8972 13.9555 17.8972C13.8039 17.8972 13.6652 17.9579 13.5655 18.0662L13.5395 18.0922L9.11955 22.1742C8.75988 22.5469 8.22255 22.6639 7.73721 22.4732C7.25188 22.2782 6.93555 21.8146 6.93555 21.2902V8.30755C6.93555 7.34989 7.71121 6.57422 8.66888 6.57422H19.2682C20.2259 6.57422 21.0015 7.34989 21.0015 8.30755V21.2989C21.0015 21.8232 20.6852 22.2869 20.1999 22.4819C20.0439 22.5382 19.8835 22.5686 19.7275 22.5686ZM15.0865 17.3382L19.5325 21.4246L19.5585 21.4506C19.6539 21.5502 19.7579 21.5286 19.8142 21.5069C19.8705 21.4852 19.9615 21.4289 19.9615 21.2902V8.30755C19.9615 7.92622 19.6495 7.61422 19.2682 7.61422H8.66888C8.28755 7.61422 7.97555 7.92622 7.97555 8.30755V21.2902C7.97555 21.4289 8.06655 21.4852 8.12288 21.5069C8.17921 21.5286 8.28321 21.5502 8.37855 21.4506L8.40455 21.4246L12.8202 17.3469C13.1149 17.0392 13.5265 16.8616 13.9555 16.8616C14.3802 16.8572 14.7919 17.0349 15.0865 17.3382Z" fill="black"/>
<path d="M16.5862 12.9423H11.4555C11.1695 12.9423 10.9355 12.7083 10.9355 12.4223C10.9355 12.1363 11.1695 11.9023 11.4555 11.9023H16.5862C16.8722 11.9023 17.1062 12.1363 17.1062 12.4223C17.1062 12.7083 16.8765 12.9423 16.5862 12.9423Z" fill="black"/>
<path d="M14.0083 15.4207C13.7223 15.4207 13.4883 15.1867 13.4883 14.9007V9.77C13.4883 9.484 13.7223 9.25 14.0083 9.25C14.2943 9.25 14.5283 9.484 14.5283 9.77V14.9007C14.5283 15.1867 14.2943 15.4207 14.0083 15.4207Z" fill="black"/>
</svg>
