<svg width="16" height="16" viewBox="0 0 16 16" fill="none" xmlns="http://www.w3.org/2000/svg">
<path d="M6.96198 0.178199L6.96198 1.98839C6.96198 2.09119 7.00642 2.18952 7.0842 2.2588L12.6907 7.15078L0.177771 7.15078C0.0799968 7.15078 -3.83295e-07 7.23123 -3.78997e-07 7.32956L-3.20385e-07 8.67044C-3.16087e-07 8.76877 0.0799969 8.84922 0.177771 8.84922L12.6907 8.84922L7.0842 13.7412C7.00642 13.8082 6.96198 13.9066 6.96198 14.0116L6.96198 15.8218C6.96198 15.9738 7.14197 16.0565 7.2553 15.9559L15.755 8.53859C16.0817 8.25477 16.0817 7.74523 15.755 7.45918L7.2553 0.0441119C7.13975 -0.056454 6.96198 0.0262334 6.96198 0.178199Z" fill="white"/>
</svg>
