<svg width="28" height="28" viewBox="0 0 28 28" fill="none" xmlns="http://www.w3.org/2000/svg">
<g clip-path="url(#clip0_7240_14986)">
<path d="M14 0C21.7 0 28 6.3 28 14C28 21.7 21.7 28 14 28C6.3 28 0 21.7 0 14C0 6.3 6.3 0 14 0ZM14 26.25C20.825 26.25 26.25 20.825 26.25 14C26.25 7.175 20.825 1.75 14 1.75C7.175 1.75 1.75 7.175 1.75 14C1.75 20.825 7.175 26.25 14 26.25Z" fill="black"/>
<path d="M16.1004 7.17422C16.2754 6.99922 16.9754 6.99922 17.3254 7.17422C17.5004 7.52422 17.5004 8.22422 17.3254 8.39922L11.7254 13.9992L17.3254 19.5992C17.6754 19.9492 17.6754 20.4742 17.3254 20.8242C16.9754 21.1742 16.4504 21.1742 16.1004 20.8242L9.97539 14.6992C9.62539 14.3492 9.62539 13.8242 9.97539 13.4742L16.1004 7.17422Z" fill="black"/>
</g>
<defs>
<clipPath id="clip0_7240_14986">
<rect width="28" height="28" fill="white"/>
</clipPath>
</defs>
</svg>
