<svg width="16" height="16" viewBox="0 0 16 16" fill="none" xmlns="http://www.w3.org/2000/svg">
<path d="M10.3333 3.66667C10.5985 3.66667 10.8529 3.77202 11.0404 3.95956C11.228 4.1471 11.3333 4.40145 11.3333 4.66667V13C11.3333 13.2652 11.228 13.5196 11.0404 13.7071C10.8529 13.8946 10.5985 14 10.3333 14H2C1.86868 14 1.73864 13.9741 1.61732 13.9239C1.49599 13.8736 1.38575 13.8 1.29289 13.7071C1.20003 13.6142 1.12638 13.504 1.07612 13.3827C1.02587 13.2614 1 13.1313 1 13V4.66667C1 4.40145 1.10536 4.1471 1.29289 3.95956C1.48043 3.77202 1.73478 3.66667 2 3.66667H10.3333ZM10 5H2.33333V12.6667H10V5ZM12.9973 1C13.246 0.999846 13.4859 1.09237 13.67 1.25952C13.8542 1.42667 13.9695 1.65645 13.9933 1.904L13.9973 2V10.9953C13.9971 11.1653 13.9321 11.3287 13.8154 11.4522C13.6988 11.5758 13.5394 11.6502 13.3697 11.6601C13.2001 11.6701 13.0331 11.6149 12.9028 11.5058C12.7725 11.3968 12.6887 11.2421 12.6687 11.0733L12.664 10.9953V2.33333H6C5.83671 2.33331 5.67911 2.27336 5.55709 2.16486C5.43506 2.05635 5.3571 1.90683 5.338 1.74467L5.33333 1.66667C5.33335 1.50338 5.3933 1.34578 5.50181 1.22375C5.61032 1.10173 5.75983 1.02377 5.922 1.00467L6 1H12.9973Z" fill="#787878"/>
</svg>
