<svg width="32" height="32" viewBox="0 0 32 32" fill="none" xmlns="http://www.w3.org/2000/svg">
<path d="M6.89131 4.86702H11.2295C12.8194 4.86702 14.1208 6.16848 14.1208 7.75833V14.9879H6.89131C5.30147 14.9879 4 13.6864 4 12.094V7.75582C4 6.16848 5.30147 4.86702 6.89131 4.86702ZM6.89131 17.8792H14.1208V25.1087C14.1208 26.6985 12.8194 28 11.2295 28H6.89131C5.30147 27.9975 4 26.6985 4 25.1062V20.768C4 19.1806 5.30147 17.8792 6.89131 17.8792ZM22.0726 17.1545L17.0121 11.9511C16.4329 11.5173 16.1445 10.6496 16.1445 9.92744C16.1445 9.20524 16.4329 8.48053 17.0121 7.90377L20.0489 4.86702C21.2049 3.71099 23.0857 3.71099 24.0962 4.86702L27.133 7.90377C27.7122 8.48303 28.0006 9.20524 28.0006 9.92744C28.0006 10.6496 27.7122 11.3743 27.133 11.9511L22.0726 17.1545ZM22.0726 5.44377C21.6387 5.44377 21.3504 5.58922 21.0595 5.8776L18.0252 8.91435C17.7369 9.20273 17.5914 9.49361 17.5914 9.92744C17.5914 10.3613 17.7369 10.6496 18.0252 10.9405L22.0726 14.9879L26.1199 10.9405C26.4083 10.6521 26.5537 10.3613 26.5537 9.92744C26.5537 9.49361 26.4083 9.20524 26.1199 8.91435L23.0831 5.8776C22.7948 5.58922 22.5064 5.44377 22.0726 5.44377Z" fill="black"/>
<path d="M17.0127 17.8789H24.2422C25.8321 17.8789 27.1335 19.1804 27.1335 20.7702V25.1084C27.1335 26.6983 25.8321 27.9997 24.2422 27.9997H19.904C18.3142 27.9997 17.0127 26.6983 17.0127 25.1084V17.8789Z" fill="black"/>
</svg>
