<svg width="79" height="53" viewBox="0 0 79 53" fill="none" xmlns="http://www.w3.org/2000/svg">
<path d="M53.6696 0.00926621C65.8545 0.317914 75.9699 8.9516 78.5416 20.4351H65.1118C62.9594 15.905 58.3436 12.7722 52.9947 12.7719C45.5888 12.7721 39.5849 18.7758 39.5849 26.1817C39.5854 33.5871 45.5891 39.5913 52.9947 39.5914C58.3427 39.5911 62.959 36.459 65.1118 31.9298H78.5416C75.9213 43.6232 65.4785 52.3615 52.9947 52.3618L52.3182 52.3541C38.3959 52.0012 27.175 40.7789 26.8223 26.8566L26.813 26.1817C26.813 11.7224 38.5354 0.000153235 52.9947 0L53.6696 0.00926621Z" fill="#F79F1B"/>
<path d="M26.8566 0.647938C31.3088 0.760712 35.4848 1.98474 39.1174 4.05328C37.9524 4.7775 36.8296 5.60163 35.763 6.52891L35.2596 6.97677C33.0154 9.02997 31.2147 11.3865 29.8589 13.9249C28.6901 13.5922 27.4572 13.4107 26.1817 13.4106C18.7757 13.4106 12.772 19.4144 12.772 26.8204C12.7723 34.2261 18.7759 40.2302 26.1817 40.2302C33.4767 40.2298 39.4064 34.4036 39.5823 27.1509L39.5977 27.1679C39.5926 27.0964 39.5909 27.0248 39.5869 26.9532C39.5873 26.909 39.5915 26.8647 39.5915 26.8204C39.5915 26.5654 39.5824 26.3121 39.5684 26.0606C39.6086 22.5108 41.0557 18.9862 43.8818 16.4005C45.3338 15.0721 47.0012 14.1287 48.7589 13.5604C51.0479 17.4495 52.3619 21.9813 52.3619 26.8204L52.3542 27.4953C51.9959 41.6422 40.4149 53.0002 26.1817 53.0006L25.5053 52.9929C11.5827 52.6402 0.36193 41.4179 0.00926623 27.4953L0 26.8204C1.81638e-06 12.361 11.7224 0.638672 26.1817 0.638672L26.8566 0.647938Z" fill="url(#paint0_linear_7233_10526)"/>
<defs>
<linearGradient id="paint0_linear_7233_10526" x1="0" y1="26.8196" x2="52.3619" y2="26.8196" gradientUnits="userSpaceOnUse">
<stop stop-color="#EB001B"/>
<stop offset="0.890885" stop-color="#FE5F00"/>
</linearGradient>
</defs>
</svg>
