<svg width="134" height="91" viewBox="0 0 134 91" fill="none" xmlns="http://www.w3.org/2000/svg">
<path d="M91.5656 0.0158091C112.354 0.542394 129.612 15.2723 134 34.8643H111.087C107.415 27.1355 99.54 21.7907 90.4142 21.7902C77.779 21.7905 67.5358 32.0334 67.5358 44.6686C67.5367 57.3031 77.7796 67.5467 90.4142 67.547C99.5386 67.5465 107.414 62.2027 111.087 54.4755H134C129.529 74.4257 111.713 89.334 90.4142 89.3346L89.2602 89.3214C65.5072 88.7194 46.3633 69.573 45.7614 45.82L45.7456 44.6686C45.7456 19.9996 65.7453 0.000261434 90.4142 0L91.5656 0.0158091Z" fill="#F79F1B"/>
<path d="M45.8201 1.10565C53.4159 1.29806 60.5406 3.38638 66.7383 6.91551C64.7507 8.15111 62.8351 9.55715 61.0154 11.1392L60.1564 11.9033C56.3277 15.4063 53.2555 19.4268 50.9423 23.7575C48.9482 23.1899 46.8448 22.8802 44.6687 22.8801C32.0333 22.8801 21.7903 33.1231 21.7903 45.7586C21.7909 58.3934 32.0337 68.637 44.6687 68.637C57.1146 68.6364 67.2313 58.6963 67.5314 46.3224L67.5577 46.3514C67.549 46.2295 67.546 46.1072 67.5393 45.9852C67.54 45.9097 67.5472 45.8342 67.5472 45.7586C67.5472 45.3234 67.5316 44.8913 67.5077 44.4622C67.5762 38.4059 70.0452 32.3926 74.8668 27.9812C77.3441 25.7147 80.1889 24.1052 83.1877 23.1357C87.0929 29.7709 89.3348 37.5025 89.3348 45.7586L89.3216 46.91C88.7103 71.0461 68.952 90.424 44.6687 90.4246L43.5146 90.4115C19.7613 89.8097 0.617489 70.6634 0.0158091 46.91L0 45.7586C3.09894e-06 21.0894 19.9995 1.08984 44.6687 1.08984L45.8201 1.10565Z" fill="url(#paint0_linear_7240_12888)"/>
<defs>
<linearGradient id="paint0_linear_7240_12888" x1="0" y1="45.7572" x2="89.3348" y2="45.7572" gradientUnits="userSpaceOnUse">
<stop stop-color="#EB001B"/>
<stop offset="0.890885" stop-color="#FE5F00"/>
</linearGradient>
</defs>
</svg>
