<svg width="52" height="52" viewBox="0 0 52 52" fill="none" xmlns="http://www.w3.org/2000/svg">
<path d="M16 0.5H36C44.5604 0.5 51.5 7.43959 51.5 16V36C51.5 44.5604 44.5604 51.5 36 51.5H16C7.43959 51.5 0.5 44.5604 0.5 36V16C0.5 7.43959 7.43959 0.5 16 0.5Z" stroke="#2E2E2E"/>
<path d="M30.3885 19H32.9953L27.3002 25.3539L34 34H28.7541L24.6454 28.7561L19.944 34H17.3357L23.4271 27.2038L17 19H22.379L26.093 23.7931L30.3885 19ZM29.4736 32.4769H30.9181L21.5942 20.4431H20.0441L29.4736 32.4769Z" fill="black"/>
</svg>
