<svg width="52" height="52" viewBox="0 0 52 52" fill="none" xmlns="http://www.w3.org/2000/svg">
<path d="M16 0.5H36C44.5604 0.5 51.5 7.43959 51.5 16V36C51.5 44.5604 44.5604 51.5 36 51.5H16C7.43959 51.5 0.5 44.5604 0.5 36V16C0.5 7.43959 7.43959 0.5 16 0.5Z" stroke="#2E2E2E"/>
<path d="M30.7368 23.6806C30.7277 23.5815 30.7158 23.4826 30.7012 23.3839C30.6866 23.2856 30.6693 23.1874 30.6493 23.0893C30.6296 22.9913 30.6072 22.894 30.5821 22.7973C30.557 22.7 30.5293 22.6033 30.4991 22.5073C30.4689 22.4117 30.4362 22.3166 30.4009 22.222C30.3656 22.1274 30.3278 22.0335 30.2874 21.9402C30.247 21.8473 30.2041 21.7551 30.1586 21.6636C30.1135 21.5724 30.066 21.4822 30.0161 21.3931C29.9655 21.3036 29.913 21.2151 29.8583 21.1277C29.8034 21.0406 29.746 20.9545 29.6863 20.8695C29.6269 20.7844 29.5651 20.7007 29.501 20.6184C29.4369 20.5361 29.3707 20.455 29.3025 20.3751C29.234 20.2955 29.1634 20.2171 29.0908 20.1399C29.0181 20.0631 28.9435 19.9878 28.8668 19.914C28.7905 19.8399 28.7121 19.7675 28.6317 19.6968C28.5509 19.6261 28.4684 19.5571 28.3843 19.4898C28.3001 19.4222 28.2141 19.3564 28.1262 19.2925C28.0387 19.2287 27.9493 19.1665 27.858 19.106C27.767 19.0459 27.6744 18.9875 27.5801 18.9308C27.4861 18.8745 27.3904 18.8198 27.293 18.7669C27.196 18.7143 27.0975 18.6636 26.9978 18.6147C26.8977 18.5662 26.7966 18.5196 26.6944 18.4749C26.592 18.4305 26.4885 18.3878 26.3839 18.3468C26.2791 18.3065 26.1732 18.2682 26.0663 18.232C25.9598 18.1958 25.8522 18.1618 25.7436 18.1301C25.635 18.0983 25.5258 18.0688 25.4158 18.0414C25.3056 18.0141 25.1948 17.9888 25.0835 17.9656C24.9718 17.9427 24.8599 17.9222 24.7475 17.9041C24.6345 17.8854 24.5214 17.8691 24.408 17.8555C24.2947 17.8418 24.181 17.8302 24.067 17.8206C23.9527 17.8114 23.8383 17.8046 23.724 17.8001C23.6096 17.7954 23.4951 17.793 23.3804 17.793C23.2596 17.793 23.1389 17.7955 23.0185 17.8007C22.8977 17.8058 22.7772 17.8135 22.6571 17.8237C22.537 17.834 22.417 17.8468 22.2972 17.8621C22.1778 17.8775 22.059 17.8954 21.941 17.9159C21.8222 17.9364 21.7043 17.9595 21.5872 17.9851C21.4698 18.0104 21.3534 18.0382 21.238 18.0686C21.1227 18.0993 21.008 18.1323 20.894 18.1675C20.7803 18.2027 20.6676 18.2402 20.556 18.2802C20.4443 18.3205 20.3341 18.3632 20.2251 18.4083C20.1159 18.4527 20.008 18.4996 19.9014 18.5492C19.7949 18.5987 19.6897 18.6503 19.5858 18.7039C19.4824 18.7578 19.3806 18.814 19.2805 18.8724C19.1797 18.9305 19.0808 18.9908 18.9837 19.0533C18.8867 19.1158 18.7917 19.1802 18.6987 19.2464C18.605 19.313 18.5134 19.3815 18.4238 19.4519C18.3346 19.5222 18.2472 19.5945 18.1617 19.6686C18.0762 19.7427 17.993 19.8187 17.9123 19.8966C17.8308 19.9741 17.7518 20.0533 17.6751 20.1343C17.5987 20.2152 17.5244 20.2979 17.4522 20.3822C17.3802 20.4663 17.3107 20.5518 17.2435 20.6389C17.1766 20.7263 17.1121 20.815 17.0501 20.9048C16.988 20.9946 16.9286 21.0858 16.8719 21.1784C16.8146 21.2706 16.7603 21.3642 16.709 21.4591C16.6571 21.5537 16.6079 21.6494 16.5614 21.746C16.5156 21.843 16.4723 21.9409 16.4316 22.0396C16.3909 22.1383 16.3529 22.2377 16.3176 22.3378C16.2827 22.4382 16.2504 22.5393 16.2209 22.6411C16.1917 22.7425 16.1654 22.8446 16.142 22.9474C16.1183 23.0502 16.0976 23.1536 16.0799 23.2574C16.0623 23.3609 16.0475 23.4649 16.0356 23.5694C16.0238 23.6736 16.0148 23.7781 16.0087 23.8829C16.0029 23.9874 16 24.0921 16 24.197C16 24.3128 16.0036 24.4284 16.0107 24.5438C16.0182 24.6593 16.029 24.7745 16.0433 24.8896C16.0579 25.0047 16.0758 25.1193 16.0972 25.2334C16.1189 25.3478 16.144 25.4616 16.1725 25.5746C16.2014 25.6873 16.2336 25.7995 16.2693 25.9112C16.3049 26.0226 16.3441 26.1332 16.3868 26.2432C16.4292 26.3525 16.4752 26.4609 16.5248 26.5685C16.5743 26.6761 16.6269 26.7825 16.6826 26.8877C16.7389 26.9926 16.7983 27.096 16.8607 27.1982C16.9231 27.3006 16.9888 27.4014 17.0577 27.5004C17.1266 27.5995 17.1983 27.6968 17.273 27.7925C17.348 27.8881 17.426 27.982 17.5071 28.0742C17.5875 28.1665 17.671 28.2566 17.7575 28.3447C17.8437 28.4329 17.9328 28.5189 18.0248 28.6029C18.1164 28.687 18.2106 28.7689 18.3073 28.8489C18.4043 28.9281 18.5037 29.0051 18.6055 29.0799L18.0787 30.7193C18.0787 30.7193 17.9108 31.1753 18.3241 31.3956C18.7379 31.6169 19.0738 31.3177 19.0738 31.3177L21.153 30.3023C21.8778 30.5014 22.6203 30.601 23.3804 30.601C23.8975 30.601 24.4092 30.5544 24.9155 30.4611L24.2401 29.0113C23.955 29.0464 23.6685 29.064 23.3804 29.064C23.039 29.064 22.7 29.0394 22.3634 28.9903C22.0275 28.9407 21.699 28.8673 21.378 28.77L19.8281 29.4283L20.1152 28.2366C20.0161 28.1813 19.9192 28.1232 19.8246 28.0625C19.7296 28.0023 19.6369 27.9398 19.5467 27.8749C19.4564 27.81 19.3687 27.7428 19.2835 27.6731C19.198 27.6034 19.1152 27.5317 19.0351 27.4579C18.9554 27.3845 18.8782 27.3088 18.8035 27.231C18.7289 27.1534 18.6574 27.074 18.5892 26.9927C18.5204 26.9114 18.4547 26.8284 18.3923 26.7437C18.3298 26.6594 18.2704 26.5733 18.2141 26.4855C18.1581 26.3977 18.1054 26.3088 18.0558 26.2186C18.0063 26.1281 17.96 26.0366 17.9169 25.944C17.8741 25.8514 17.8347 25.7577 17.7988 25.6627C17.7628 25.5681 17.7304 25.4727 17.7016 25.3763C17.6724 25.28 17.6469 25.183 17.6252 25.0854C17.6035 24.9877 17.5853 24.8896 17.5707 24.7913C17.5562 24.6926 17.5453 24.5935 17.5382 24.4941C17.5307 24.3951 17.527 24.296 17.527 24.197C17.527 24.1174 17.5294 24.0378 17.5341 23.9582C17.5389 23.8787 17.5458 23.7993 17.555 23.72C17.5645 23.6408 17.5763 23.5617 17.5906 23.4828C17.6042 23.4043 17.6205 23.3257 17.6395 23.2471C17.6581 23.1693 17.6792 23.0917 17.7026 23.0145C17.7257 22.937 17.7511 22.8602 17.7789 22.784C17.8068 22.7078 17.8368 22.6324 17.869 22.5576C17.9013 22.4824 17.9357 22.4081 17.9723 22.3347C18.009 22.2609 18.048 22.188 18.0894 22.1159C18.1301 22.0442 18.1731 21.9732 18.2182 21.9028C18.2633 21.8325 18.3105 21.7631 18.3597 21.6948C18.4089 21.6265 18.4601 21.5592 18.5134 21.493C18.5667 21.4267 18.6218 21.3616 18.6788 21.2978C18.7358 21.2339 18.7947 21.171 18.8554 21.1092C18.9165 21.0477 18.9793 20.9875 19.0438 20.9284C19.1079 20.8693 19.1737 20.8116 19.2413 20.7552C19.3091 20.6992 19.3787 20.6444 19.4499 20.5908C19.5205 20.5371 19.5928 20.485 19.6668 20.4345C19.7411 20.3839 19.8166 20.3351 19.8933 20.288C19.9703 20.2402 20.0487 20.1942 20.1284 20.1502C20.2082 20.1058 20.2891 20.0631 20.3712 20.0221C20.4533 19.9811 20.5365 19.9418 20.6206 19.9042C20.7055 19.8667 20.7911 19.831 20.8777 19.7972C20.9642 19.763 21.0517 19.7307 21.1403 19.7003C21.2289 19.6696 21.3183 19.6409 21.4085 19.6143C21.4988 19.5876 21.5897 19.5627 21.6814 19.5395C21.773 19.5162 21.8653 19.4951 21.9583 19.4759C22.0512 19.4565 22.1445 19.4391 22.2382 19.4237C22.3322 19.408 22.4267 19.3943 22.5217 19.3827C22.6164 19.3711 22.7114 19.3614 22.8067 19.3535C22.9018 19.3456 22.9973 19.3397 23.0933 19.3356C23.189 19.3318 23.2847 19.3299 23.3804 19.3299C23.4696 19.3299 23.5589 19.3316 23.6481 19.3351C23.7374 19.3385 23.8264 19.3436 23.9153 19.3504C24.0042 19.3573 24.093 19.3658 24.1815 19.376C24.2698 19.3863 24.358 19.3981 24.4462 19.4114C24.5338 19.4251 24.6211 19.4403 24.7083 19.457C24.7952 19.4737 24.8817 19.4922 24.9679 19.5123C25.0538 19.5325 25.1389 19.5542 25.2234 19.5774C25.3083 19.601 25.3924 19.6261 25.4759 19.6527C25.5594 19.679 25.642 19.7072 25.7238 19.7372C25.8056 19.7669 25.8865 19.7982 25.9666 19.831C26.0467 19.8638 26.1259 19.8979 26.2043 19.9334C26.2823 19.9697 26.3595 20.0071 26.4359 20.0456C26.5119 20.0842 26.5869 20.1244 26.6608 20.166C26.7348 20.2077 26.8078 20.2507 26.8797 20.2951C26.951 20.3395 27.0212 20.3853 27.0904 20.4324C27.1596 20.4796 27.2275 20.5279 27.294 20.5774C27.3602 20.6273 27.4252 20.6782 27.489 20.7301C27.5524 20.7824 27.6145 20.8356 27.6753 20.89C27.736 20.9446 27.795 21.0003 27.8524 21.057C27.9101 21.1137 27.9661 21.1714 28.0204 21.2301C28.075 21.2892 28.1279 21.3492 28.1792 21.41C28.2301 21.4708 28.2794 21.5326 28.3273 21.5954C28.3748 21.6583 28.4208 21.722 28.4652 21.7865C28.5093 21.8511 28.5517 21.9163 28.5925 21.9822C28.6332 22.0485 28.6722 22.1154 28.7095 22.1831C28.7462 22.2507 28.7811 22.319 28.8144 22.388C28.8476 22.4566 28.8789 22.5261 28.908 22.5965C28.9376 22.6665 28.965 22.737 28.9905 22.8081C29.0159 22.8795 29.0395 22.9512 29.0612 23.0233C29.0826 23.095 29.1021 23.1674 29.1198 23.2405C29.1371 23.3132 29.1525 23.3863 29.1661 23.4598C29.1797 23.5332 29.1912 23.6068 29.2007 23.6806H30.7368Z" fill="black"/>
<path d="M30.2104 33.5832C30.6939 33.5832 31.17 33.529 31.6388 33.4206L33.5886 34.4943C33.5886 34.4943 33.8526 34.759 34.1769 34.5638C34.502 34.3674 34.3695 33.9648 34.3695 33.9648L33.9142 32.3653C34.077 32.2425 34.2317 32.1116 34.3783 31.9726C34.5253 31.8344 34.6635 31.689 34.7929 31.5363C34.9225 31.384 35.0423 31.2258 35.1523 31.0616C35.2625 30.8974 35.3625 30.7281 35.4524 30.5537C35.5422 30.3796 35.6214 30.2016 35.69 30.0194C35.7579 29.837 35.815 29.6519 35.8614 29.4642C35.9077 29.2764 35.9423 29.087 35.9651 28.8957C35.9883 28.7045 35.9998 28.5126 35.9998 28.3199C35.9998 28.234 35.9975 28.148 35.9929 28.062C35.9883 27.9757 35.9813 27.8897 35.9721 27.8041C35.9628 27.7185 35.9512 27.6331 35.9373 27.5478C35.9234 27.4625 35.9072 27.3776 35.8887 27.2931C35.8702 27.2088 35.8493 27.1248 35.8262 27.0409C35.8033 26.9574 35.7781 26.8745 35.7507 26.792C35.7229 26.7095 35.6931 26.6278 35.6613 26.5467C35.6295 26.466 35.5955 26.3857 35.5594 26.3057C35.5229 26.2264 35.4844 26.1478 35.4436 26.0699C35.4035 25.992 35.361 25.915 35.3162 25.8388C35.2715 25.763 35.2248 25.6881 35.1764 25.6141C35.1276 25.5404 35.0768 25.4678 35.024 25.3962C34.9715 25.3242 34.917 25.2537 34.8605 25.1846C34.804 25.1155 34.7458 25.0476 34.6859 24.9809C34.6257 24.9142 34.5637 24.8491 34.5001 24.7856C34.4365 24.7218 34.3712 24.6593 34.3042 24.5983C34.2372 24.5376 34.1685 24.4783 34.0981 24.4204C34.028 24.3625 33.9564 24.3063 33.8832 24.2519C33.81 24.1968 33.7353 24.1437 33.659 24.0925C33.5831 24.0412 33.5057 23.9918 33.427 23.944C33.348 23.896 33.2678 23.8498 33.1866 23.8056C33.1054 23.7614 33.023 23.7189 32.9393 23.6782C32.8559 23.6375 32.7713 23.5989 32.6855 23.5624C32.6 23.5252 32.5135 23.4902 32.4261 23.4572C32.3384 23.4245 32.25 23.3937 32.1607 23.3645C32.0715 23.3354 31.9816 23.3084 31.8912 23.2835C31.8004 23.2586 31.709 23.2356 31.617 23.2145C31.5253 23.1935 31.433 23.1745 31.34 23.1577C31.2471 23.1409 31.1537 23.1261 31.0598 23.1135C30.9662 23.1009 30.8722 23.0903 30.7777 23.0819C30.6836 23.0735 30.5891 23.0672 30.4943 23.063C30.3998 23.0587 30.3052 23.0566 30.2104 23.0566C30.1156 23.0566 30.0209 23.0587 29.9265 23.063C29.8317 23.0672 29.7372 23.0735 29.643 23.0819C29.5485 23.0903 29.4543 23.1009 29.3605 23.1135C29.2669 23.1261 29.1737 23.1409 29.0807 23.1577C28.9881 23.1745 28.8958 23.1935 28.8038 23.2145C28.7117 23.2356 28.6204 23.2584 28.5296 23.283C28.4391 23.3082 28.3492 23.3354 28.26 23.3645C28.1705 23.3937 28.082 23.4245 27.9946 23.4572C27.9072 23.4902 27.8208 23.5252 27.7353 23.5624C27.6494 23.5989 27.5647 23.6375 27.481 23.6782C27.3976 23.7189 27.3153 23.7614 27.2341 23.8056C27.1526 23.8498 27.0725 23.896 26.9937 23.944C26.915 23.9918 26.8377 24.0412 26.7617 24.0925C26.6854 24.1437 26.6107 24.1967 26.5375 24.2514C26.4644 24.3061 26.3926 24.3623 26.3222 24.4198C26.2521 24.4781 26.1835 24.5377 26.1165 24.5988C26.0495 24.6595 25.9842 24.7218 25.9206 24.7856C25.857 24.8495 25.7952 24.9146 25.7353 24.9809C25.6751 25.0476 25.6168 25.1155 25.5603 25.1846C25.5038 25.2537 25.4491 25.3242 25.3963 25.3962C25.3438 25.4678 25.2932 25.5404 25.2444 25.6141C25.1956 25.6878 25.149 25.7627 25.1045 25.8388C25.0597 25.915 25.0171 25.992 24.9767 26.0699C24.9362 26.1478 24.8978 26.2264 24.8614 26.3057C24.8252 26.3853 24.7913 26.4657 24.7595 26.5467C24.7274 26.6278 24.6976 26.7095 24.6701 26.792C24.6426 26.8745 24.6173 26.9574 24.5941 27.0409C24.5713 27.1248 24.5506 27.209 24.5321 27.2936C24.5135 27.3778 24.4973 27.4625 24.4834 27.5478C24.4695 27.6331 24.458 27.7185 24.4487 27.8041C24.4394 27.8897 24.4325 27.9757 24.4278 28.062C24.4232 28.148 24.4209 28.234 24.4209 28.3199C24.4209 28.4062 24.4232 28.4922 24.4278 28.5778C24.4325 28.6641 24.4394 28.7501 24.4487 28.8357C24.458 28.9217 24.4695 29.0073 24.4834 29.0926C24.4973 29.1775 24.5135 29.2622 24.5321 29.3468C24.5506 29.431 24.5713 29.515 24.5941 29.5989C24.6173 29.6824 24.6426 29.7654 24.6701 29.8479C24.6979 29.9303 24.7277 30.0121 24.7595 30.0931C24.7913 30.1742 24.8252 30.2545 24.8614 30.3342C24.8978 30.4138 24.9362 30.4926 24.9767 30.5705C25.0171 30.6484 25.0597 30.7252 25.1045 30.801C25.149 30.8772 25.1956 30.9521 25.2444 31.0258C25.2932 31.0995 25.3438 31.1723 25.3963 31.2442C25.4491 31.3158 25.5038 31.3861 25.5603 31.4553C25.6168 31.5244 25.675 31.5923 25.7349 31.659C25.7951 31.7256 25.857 31.7909 25.9206 31.8547C25.9842 31.9186 26.0495 31.9809 26.1165 32.0416C26.1835 32.1026 26.2521 32.1621 26.3222 32.22C26.3926 32.2779 26.4644 32.3341 26.5375 32.3884C26.6107 32.4432 26.6854 32.4962 26.7617 32.5474C26.8377 32.599 26.915 32.6486 26.9937 32.6963C27.0725 32.7441 27.1526 32.7902 27.2341 32.8348C27.3153 32.879 27.3976 32.9213 27.481 32.9616C27.5647 33.0023 27.6493 33.0411 27.7348 33.0779C27.8206 33.1148 27.9072 33.1497 27.9946 33.1827C28.0823 33.2157 28.1708 33.2467 28.26 33.2758C28.3492 33.3046 28.4391 33.3316 28.5296 33.3569C28.6204 33.3815 28.7117 33.4043 28.8038 33.4253C28.8955 33.4464 28.9878 33.4653 29.0807 33.4822C29.1737 33.499 29.2671 33.5137 29.3609 33.5264C29.4545 33.539 29.5485 33.5495 29.643 33.5579C29.7372 33.5664 29.8317 33.5727 29.9265 33.5769C30.0209 33.5811 30.1156 33.5832 30.2104 33.5832ZM30.2104 32.0042C30.6152 32.0042 31.0126 31.9583 31.4025 31.8663L32.6554 32.4663L32.4474 31.4926C32.5292 31.4519 32.6095 31.4093 32.6883 31.3647C32.767 31.3198 32.8437 31.2728 32.9185 31.2237C32.9935 31.1746 33.0665 31.1237 33.1375 31.071C33.2085 31.0177 33.2774 30.9626 33.3441 30.9058C33.4111 30.8493 33.4756 30.7909 33.5377 30.7305C33.6001 30.6702 33.66 30.6082 33.7174 30.5447C33.7748 30.4816 33.8298 30.4166 33.8823 30.35C33.9348 30.2833 33.9845 30.2154 34.0314 30.1463C34.0787 30.0772 34.1231 30.007 34.1648 29.9358C34.2065 29.8638 34.2454 29.791 34.2815 29.7173C34.3177 29.6436 34.3508 29.5691 34.3811 29.4936C34.4114 29.4182 34.4387 29.3419 34.4631 29.2647C34.4875 29.1875 34.5089 29.1099 34.5275 29.032C34.546 28.9542 34.5613 28.8756 34.5733 28.7963C34.5857 28.7173 34.5949 28.6382 34.6011 28.5589C34.6073 28.4792 34.6104 28.3996 34.6104 28.3199C34.6104 28.2596 34.6085 28.1994 34.6048 28.1394C34.6014 28.079 34.5962 28.0189 34.5891 27.9589C34.582 27.8992 34.5732 27.8396 34.5627 27.7799C34.5522 27.7203 34.5398 27.6606 34.5256 27.601C34.5117 27.542 34.496 27.4832 34.4784 27.4246C34.4608 27.3664 34.4416 27.3085 34.4209 27.251C34.3999 27.1931 34.3772 27.1357 34.3529 27.0788C34.3288 27.022 34.303 26.9659 34.2755 26.9104C34.2477 26.8543 34.2184 26.799 34.1875 26.7446C34.1566 26.6902 34.1242 26.6364 34.0902 26.583C34.0566 26.5301 34.0212 26.4778 33.9842 26.4262C33.9471 26.3743 33.9085 26.3234 33.8684 26.2736C33.8286 26.223 33.7872 26.1736 33.7443 26.1251C33.7013 26.0767 33.657 26.0293 33.6113 25.983C33.5656 25.9364 33.5187 25.8907 33.4705 25.8462C33.4221 25.8013 33.3724 25.7574 33.3214 25.7146C33.2705 25.6721 33.2184 25.6307 33.1653 25.5904C33.1119 25.5497 33.0572 25.5102 33.0014 25.472C32.9458 25.4337 32.8891 25.3967 32.8314 25.3609C32.7736 25.3248 32.7148 25.29 32.6549 25.2567C32.595 25.223 32.5342 25.1907 32.4724 25.1598C32.4107 25.129 32.348 25.0991 32.2844 25.0704C32.2208 25.0423 32.1564 25.0153 32.0913 24.9893C32.0264 24.9637 31.9606 24.9393 31.894 24.9162C31.8276 24.893 31.7604 24.8712 31.6925 24.8509C31.6245 24.8309 31.5562 24.8121 31.4873 24.7946C31.4184 24.777 31.3491 24.7609 31.2793 24.7462C31.2096 24.7314 31.1393 24.7183 31.0686 24.7067C30.9979 24.6948 30.9269 24.6844 30.8556 24.6756C30.7845 24.6669 30.7132 24.6595 30.6416 24.6535C30.5699 24.6476 30.4981 24.6432 30.4262 24.6404C30.3543 24.6372 30.2823 24.6356 30.2104 24.6356C30.1384 24.6356 30.0665 24.6372 29.9945 24.6404C29.9226 24.6432 29.8508 24.6476 29.7792 24.6535C29.7072 24.6595 29.6357 24.6669 29.5647 24.6756C29.4937 24.6844 29.4227 24.6948 29.3517 24.7067C29.2813 24.7183 29.211 24.7314 29.1409 24.7462C29.0712 24.7609 29.0018 24.777 28.933 24.7946C28.8641 24.8121 28.7957 24.8309 28.7278 24.8509C28.6599 24.8712 28.5927 24.893 28.5263 24.9162C28.4599 24.9393 28.3942 24.9639 28.329 24.9898C28.2642 25.0155 28.1998 25.0425 28.1359 25.0709C28.0726 25.099 28.0101 25.1288 27.9483 25.1604C27.8866 25.1909 27.8257 25.223 27.7658 25.2567C27.7059 25.29 27.6471 25.3248 27.5894 25.3609C27.5313 25.3967 27.4745 25.4337 27.4189 25.472C27.3633 25.5106 27.3088 25.55 27.2554 25.5904C27.202 25.6307 27.1498 25.6721 27.0989 25.7146C27.0479 25.7574 26.9984 25.8013 26.9502 25.8462C26.9017 25.8907 26.8546 25.9364 26.8089 25.983C26.7632 26.0293 26.7189 26.0767 26.676 26.1251C26.6331 26.1736 26.5917 26.2229 26.5519 26.273C26.5117 26.3232 26.4732 26.3741 26.4361 26.4257C26.399 26.4776 26.3635 26.5302 26.3296 26.5836C26.2956 26.6366 26.2632 26.6902 26.2323 26.7446C26.2017 26.7994 26.1727 26.8545 26.1452 26.9099C26.1174 26.966 26.0915 27.0224 26.0674 27.0788C26.0433 27.1357 26.0208 27.1929 25.9998 27.2504C25.9788 27.3083 25.9595 27.3664 25.9419 27.4246C25.9246 27.4832 25.9089 27.5422 25.8947 27.6015C25.8808 27.6604 25.8684 27.7197 25.8576 27.7794C25.8471 27.839 25.8383 27.8989 25.8312 27.9589C25.8244 28.0189 25.8192 28.079 25.8155 28.1394C25.8121 28.1994 25.8104 28.2596 25.8104 28.3199C25.8104 28.3803 25.8121 28.4406 25.8155 28.501C25.8192 28.561 25.8244 28.621 25.8312 28.681C25.8383 28.741 25.8471 28.8008 25.8576 28.8605C25.8684 28.9201 25.8808 28.9796 25.8947 29.0389C25.9089 29.0978 25.9246 29.1566 25.9419 29.2152C25.9595 29.2738 25.9788 29.3319 25.9998 29.3894C26.0208 29.4473 26.0433 29.5045 26.0674 29.561C26.0918 29.6179 26.1178 29.6742 26.1452 29.73C26.173 29.7858 26.2022 29.8408 26.2328 29.8952C26.2636 29.9496 26.2961 30.0035 26.33 30.0568C26.364 30.1101 26.3995 30.1626 26.4366 30.2142C26.4736 30.2658 26.5121 30.3166 26.5519 30.3668C26.592 30.417 26.6334 30.4663 26.676 30.5147C26.7192 30.5631 26.7636 30.6107 26.8089 30.6573C26.8546 30.704 26.9017 30.7496 26.9502 30.7942C26.9984 30.8388 27.0479 30.8824 27.0989 30.9253C27.1498 30.9677 27.202 31.0093 27.2554 31.05C27.3088 31.0903 27.3633 31.1296 27.4189 31.1679C27.4745 31.2065 27.5313 31.2437 27.5894 31.2795C27.6471 31.3153 27.7058 31.35 27.7654 31.3837C27.8256 31.417 27.8866 31.4491 27.9483 31.48C28.0101 31.5112 28.0726 31.5411 28.1359 31.5695C28.1995 31.5975 28.2639 31.6246 28.329 31.6505C28.3939 31.6765 28.4596 31.7011 28.5263 31.7242C28.593 31.747 28.6602 31.7686 28.7278 31.789C28.7957 31.8093 28.8641 31.8283 28.933 31.8458C29.0018 31.8633 29.0713 31.8793 29.1414 31.8937C29.2112 31.9084 29.2813 31.9218 29.3517 31.9337C29.4227 31.9453 29.4937 31.9555 29.5647 31.9642C29.6357 31.9733 29.7071 31.9809 29.7787 31.9869C29.8507 31.9925 29.9226 31.9969 29.9945 32C30.0665 32.0028 30.1384 32.0042 30.2104 32.0042Z" fill="black"/>
<path d="M20.2104 22.0038C20.2104 22.142 20.2376 22.2789 20.2905 22.4066C20.3434 22.5343 20.421 22.6504 20.5187 22.7481C20.6164 22.8459 20.7325 22.9234 20.8602 22.9763C20.9879 23.0292 21.1248 23.0564 21.2631 23.0564C21.4013 23.0564 21.5382 23.0292 21.6659 22.9763C21.7937 22.9234 21.9097 22.8459 22.0075 22.7481C22.1052 22.6504 22.1827 22.5343 22.2356 22.4066C22.2885 22.2789 22.3157 22.142 22.3157 22.0038C22.3157 21.8656 22.2885 21.7287 22.2356 21.601C22.1827 21.4733 22.1052 21.3572 22.0075 21.2595C21.9097 21.1617 21.7937 21.0842 21.6659 21.0313C21.5382 20.9784 21.4013 20.9512 21.2631 20.9512C21.1248 20.9512 20.9879 20.9784 20.8602 21.0313C20.7325 21.0842 20.6164 21.1617 20.5187 21.2595C20.421 21.3572 20.3434 21.4733 20.2905 21.601C20.2376 21.7287 20.2104 21.8656 20.2104 22.0038Z" fill="black"/>
<path d="M27.5791 26.7412C27.5791 26.8807 27.69 27.0146 27.8874 27.1133C28.0848 27.212 28.3526 27.2675 28.6317 27.2675C28.9109 27.2675 29.1787 27.212 29.3761 27.1133C29.5735 27.0146 29.6844 26.8807 29.6844 26.7412C29.6844 26.6016 29.5735 26.4677 29.3761 26.369C29.1787 26.2703 28.9109 26.2148 28.6317 26.2148C28.3526 26.2148 28.0848 26.2703 27.8874 26.369C27.69 26.4677 27.5791 26.6016 27.5791 26.7412Z" fill="black"/>
<path d="M24.4209 22.0038C24.4209 22.142 24.4481 22.2789 24.501 22.4066C24.5539 22.5343 24.6314 22.6504 24.7292 22.7481C24.8269 22.8459 24.9429 22.9234 25.0707 22.9763C25.1984 23.0292 25.3353 23.0564 25.4735 23.0564C25.6118 23.0564 25.7487 23.0292 25.8764 22.9763C26.0041 22.9234 26.1202 22.8459 26.2179 22.7481C26.3157 22.6504 26.3932 22.5343 26.4461 22.4066C26.499 22.2789 26.5262 22.142 26.5262 22.0038C26.5262 21.8656 26.499 21.7287 26.4461 21.601C26.3932 21.4733 26.3157 21.3572 26.2179 21.2595C26.1202 21.1617 26.0041 21.0842 25.8764 21.0313C25.7487 20.9784 25.6118 20.9512 25.4735 20.9512C25.3353 20.9512 25.1984 20.9784 25.0707 21.0313C24.9429 21.0842 24.8269 21.1617 24.7292 21.2595C24.6314 21.3572 24.5539 21.4733 24.501 21.601C24.4481 21.7287 24.4209 21.8656 24.4209 22.0038Z" fill="black"/>
<path d="M31.7896 26.7412C31.7896 26.8807 31.845 27.0146 31.9437 27.1133C32.0424 27.212 32.1763 27.2675 32.3159 27.2675C32.4555 27.2675 32.5893 27.212 32.688 27.1133C32.7867 27.0146 32.8422 26.8807 32.8422 26.7412C32.8422 26.6016 32.7867 26.4677 32.688 26.369C32.5893 26.2703 32.4555 26.2148 32.3159 26.2148C32.1763 26.2148 32.0424 26.2703 31.9437 26.369C31.845 26.4677 31.7896 26.6016 31.7896 26.7412Z" fill="black"/>
</svg>
