<svg width="103" height="20" viewBox="0 0 103 20" fill="none" xmlns="http://www.w3.org/2000/svg">
<path d="M10.6832 0.942507C12.8503 0.958924 14.4428 1.43502 15.4606 2.3708C16.4785 3.29016 16.9874 4.74309 16.9874 6.72956C16.9874 7.2385 16.9464 7.86235 16.8643 8.60112L16.4949 11.9749C16.1337 14.6509 15.3129 16.5963 14.0323 17.8112C12.7518 19.0096 10.8638 19.6171 8.36841 19.6335H6.5461C4.37903 19.6171 2.78656 19.1492 1.7687 18.2298C0.750834 17.3104 0.241901 15.8657 0.241901 13.8957C0.241901 13.3867 0.282944 12.7465 0.36503 11.9749L0.734416 8.60112C1.07918 5.92512 1.89183 3.98789 3.17237 2.78944C4.46933 1.57457 6.36551 0.958924 8.86092 0.942507H10.6832ZM3.24625 12.1226C3.18058 12.7793 3.14774 13.239 3.14774 13.5017C3.14774 14.7001 3.42683 15.5702 3.98502 16.112C4.55962 16.6373 5.4954 16.9082 6.79236 16.9246H8.76242C10.2564 16.9082 11.3645 16.5306 12.0869 15.7918C12.8257 15.0367 13.31 13.8136 13.5398 12.1226L13.9831 8.45337C14.0488 7.79668 14.0816 7.337 14.0816 7.07432C14.0816 5.87587 13.7943 5.01397 13.2197 4.48862C12.6615 3.94685 11.7339 3.66776 10.437 3.65134H8.46691C6.97295 3.66776 5.85658 4.05356 5.1178 4.80875C4.39545 5.54753 3.91935 6.7624 3.68951 8.45337L3.24625 12.1226ZM22.7143 8.45337L21.3845 19.535H18.5525L20.2271 5.81841H26.4081C29.8065 5.81841 31.5057 7.37804 31.5057 10.4973C31.5057 10.8749 31.481 11.2853 31.4318 11.7286L30.4714 19.535H27.6394L28.5998 11.6547C28.6327 11.3264 28.6491 11.0965 28.6491 10.9652C28.6491 9.29064 27.7954 8.45337 26.088 8.45337H22.7143ZM49.2639 1.04101C49.9534 1.04101 50.9385 1.05743 52.219 1.09026L53.7458 1.11489L53.3764 3.84835L51.9481 3.7991C50.3064 3.76626 49.2803 3.74985 48.8699 3.74985H47.7864C46.2924 3.74985 45.176 4.12744 44.4373 4.88263C43.7149 5.63782 43.2388 6.8609 43.009 8.55187L42.5657 12.1226C42.5 12.7793 42.4672 13.239 42.4672 13.5017C42.4672 14.7001 42.7463 15.5702 43.3045 16.112C43.8791 16.6538 44.8149 16.9246 46.1118 16.9246H47.2939C48.164 16.9246 49.5758 16.8672 51.5295 16.7523L52.1451 16.7276L51.9481 19.4365C50.3392 19.5678 48.7057 19.6335 47.0476 19.6335H45.8656C43.6985 19.6171 42.106 19.1492 41.0882 18.2298C40.0703 17.3104 39.5614 15.8657 39.5614 13.8957C39.5614 13.3867 39.6024 12.7465 39.6845 11.9749L40.0539 8.69963C40.3986 6.02363 41.2113 4.0864 42.4918 2.88794C43.7888 1.67307 45.685 1.05743 48.1804 1.04101H49.2639ZM56.9402 0.548496H59.7722L59.1319 5.81841H62.481C65.8794 5.81841 67.5786 7.37804 67.5786 10.4973C67.5786 10.8749 67.5539 11.2853 67.5047 11.7286L66.5443 19.535H63.7123L64.6727 11.6547C64.7056 11.3264 64.722 11.0965 64.722 10.9652C64.722 9.29064 63.8683 8.45337 62.1609 8.45337H58.8118L57.4574 19.535H54.6254L56.9402 0.548496ZM73.4493 19.535C72.218 19.535 71.233 19.1902 70.4942 18.5007C69.7554 17.7947 69.3861 16.8836 69.3861 15.7672C69.3861 15.521 69.3943 15.3322 69.4107 15.2008C69.5584 14.183 69.8211 13.3785 70.1987 12.7875C70.5763 12.1801 71.1181 11.745 71.824 11.4823C72.5464 11.2032 73.4904 11.0637 74.656 11.0637H78.7931L78.8177 10.8667C78.8342 10.7846 78.8424 10.6697 78.8424 10.5219C78.8424 9.88166 78.6289 9.36452 78.2021 8.97051C77.7752 8.5765 77.1103 8.37949 76.2074 8.37949H75.5671C74.106 8.37949 72.7926 8.42053 71.627 8.50262L71.9964 5.99079L72.7105 5.94154C72.9732 5.92512 73.4329 5.9005 74.0896 5.86766C74.7627 5.83483 75.3455 5.81841 75.838 5.81841H76.5029C78.1939 5.81841 79.4744 6.22063 80.3445 7.02507C81.2146 7.82952 81.6497 8.90484 81.6497 10.251C81.6497 10.3988 81.6333 10.6533 81.6004 11.0144L80.5908 19.535H73.4493ZM72.218 15.4963C72.218 15.9724 72.3494 16.3418 72.612 16.6045C72.8911 16.8508 73.2851 16.9739 73.7941 16.9739H78.079L78.4976 13.5263L74.4097 13.5017C73.7859 13.4852 73.2851 13.6084 72.9075 13.871C72.5464 14.1173 72.3247 14.5606 72.2427 15.2008L72.218 15.4963ZM85.4251 3.97148L85.7945 1.01639H89.0205L88.6511 3.97148H85.4251ZM86.5579 19.535H83.726L85.4251 5.81841H88.2571L86.5579 19.535ZM93.9943 8.45337L92.6645 19.535H89.8326L91.5071 5.81841H97.6882C101.087 5.81841 102.786 7.37804 102.786 10.4973C102.786 10.8749 102.761 11.2853 102.712 11.7286L101.751 19.535H98.9195L99.8799 11.6547C99.9127 11.3264 99.9291 11.0965 99.9291 10.9652C99.9291 9.29064 99.0754 8.45337 97.3681 8.45337H93.9943Z" fill="black"/>
</svg>
