<svg width="222" height="44" viewBox="0 0 222 44" fill="none" xmlns="http://www.w3.org/2000/svg">
<path d="M201.558 18.2185L198.534 43.7633H192.094L195.902 12.1445H209.957C217.685 12.1445 221.548 15.7397 221.548 22.9301C221.548 23.8005 221.492 24.7466 221.38 25.7684L219.197 43.7633H212.757L214.941 25.5981C215.015 24.8412 215.053 24.3114 215.053 24.0086C215.053 20.1486 213.112 18.2185 209.229 18.2185H201.558Z" fill="#0E0E0E"/>
<path d="M182.074 7.89787L182.914 1.08594H190.249L189.41 7.89787H182.074ZM184.65 43.774H178.21L182.074 12.1553H188.514L184.65 43.774Z" fill="#0E0E0E"/>
<path d="M154.841 43.7633C152.041 43.7633 149.802 42.9685 148.122 41.3791C146.442 39.7518 145.602 37.6514 145.602 35.078C145.602 34.5104 145.62 34.0752 145.658 33.7724C145.994 31.4261 146.591 29.5717 147.45 28.2093C148.308 26.8091 149.54 25.8062 151.145 25.2007C152.788 24.5574 154.935 24.2357 157.585 24.2357H166.992L167.048 23.7816C167.086 23.5924 167.104 23.3275 167.104 22.9869C167.104 21.5109 166.619 20.3189 165.649 19.4106C164.678 18.5023 163.166 18.0482 161.113 18.0482H159.657C156.334 18.0482 153.348 18.1428 150.697 18.332L151.537 12.5419L153.161 12.4284C153.759 12.3905 154.804 12.3338 156.297 12.2581C157.828 12.1824 159.153 12.1445 160.273 12.1445H161.785C165.63 12.1445 168.542 13.0717 170.52 14.9261C172.499 16.7804 173.488 19.2592 173.488 22.3624C173.488 22.703 173.451 23.2896 173.376 24.1222L171.08 43.7633H154.841ZM152.041 34.4536C152.041 35.5511 152.34 36.4026 152.937 37.0081C153.572 37.5757 154.468 37.8596 155.625 37.8596H165.369L166.321 29.9123L157.025 29.8556C155.607 29.8177 154.468 30.1015 153.609 30.707C152.788 31.2747 152.284 32.2965 152.097 33.7724L152.041 34.4536Z" fill="#0E0E0E"/>
<path d="M117.305 0H123.745L122.289 12.1479H129.905C137.632 12.1479 141.496 15.7431 141.496 22.9335C141.496 23.8039 141.44 24.75 141.328 25.7718L139.144 43.7667H132.704L134.888 25.6015C134.963 24.8446 135 24.3148 135 24.0121C135 20.152 133.059 18.2219 129.177 18.2219H121.561L118.481 43.7667H112.042L117.305 0Z" fill="#0E0E0E"/>
<path d="M99.8424 1.13281C101.41 1.13281 103.65 1.17066 106.562 1.24634L110.034 1.30311L109.194 7.60415L105.946 7.49061C102.213 7.41493 99.8797 7.37708 98.9465 7.37708H96.4826C93.0855 7.37708 90.547 8.2475 88.8671 9.98833C87.2245 11.7292 86.1419 14.5485 85.6193 18.4465L84.6114 26.6776C84.462 28.1913 84.3874 29.251 84.3874 29.8565C84.3874 32.6191 85.022 34.6248 86.2913 35.8737C87.5978 37.1225 89.7257 37.747 92.6749 37.747H95.3627C97.3412 37.747 100.552 37.6145 104.994 37.3496L106.394 37.2928L105.946 43.5371C102.288 43.8398 98.5732 43.9912 94.8027 43.9912H92.1149C87.1872 43.9534 83.5661 42.8748 81.2516 40.7556C78.937 38.6363 77.7798 35.306 77.7798 30.7647C77.7798 29.5916 77.8731 28.1156 78.0598 26.337L78.8997 18.7871C79.6837 12.6185 81.5315 8.15289 84.4434 5.39027C87.3925 2.58981 91.7042 1.17066 97.3786 1.13281H99.8424Z" fill="#0E0E0E"/>
<path d="M51.1006 18.2185L48.0768 43.7633H41.6372L45.445 12.1445H59.5001C67.2276 12.1445 71.0914 15.7397 71.0914 22.9301C71.0914 23.8005 71.0354 24.7466 70.9234 25.7684L68.7395 43.7633H62.2999L64.4838 25.5981C64.5584 24.8412 64.5958 24.3114 64.5958 24.0086C64.5958 20.1486 62.6546 18.2185 58.7721 18.2185H51.1006Z" fill="#0E0E0E"/>
<path d="M23.7425 0.902344C28.6702 0.940187 32.2913 2.03767 34.6058 4.19478C36.9204 6.31405 38.0776 9.66325 38.0776 14.2424C38.0776 15.4155 37.9843 16.8536 37.7976 18.5566L36.9577 26.3336C36.1364 32.5021 34.2699 36.9867 31.358 39.7871C28.4462 42.5497 24.1532 43.95 18.4788 43.9878H14.3351C9.40741 43.95 5.78631 42.8714 3.47178 40.7521C1.15726 38.6329 0 35.3026 0 30.7613C0 29.5881 0.0933275 28.1122 0.279983 26.3336L1.11993 18.5566C1.90388 12.388 3.75177 7.92242 6.66359 5.1598C9.61273 2.35934 13.9245 0.940187 19.5988 0.902344H23.7425ZM6.83158 26.6742C6.68225 28.1879 6.60759 29.2475 6.60759 29.8531C6.60759 32.6157 7.24222 34.6214 8.51147 35.8703C9.81806 37.0813 11.9459 37.7057 14.8951 37.7435H19.3748C22.7719 37.7057 25.2918 36.8353 26.9343 35.1323C28.6142 33.3915 29.7155 30.5721 30.2381 26.6742L31.2461 18.216C31.3954 16.7022 31.47 15.6426 31.47 15.0371C31.47 12.2745 30.8167 10.2877 29.5102 9.07666C28.2409 7.82781 26.1317 7.18446 23.1826 7.14661H18.7028C15.3057 7.18446 12.7672 8.07379 11.0873 9.81462C9.44475 11.5176 8.36215 14.3181 7.83951 18.216L6.83158 26.6742Z" fill="#0E0E0E"/>
</svg>
