<svg width="52" height="52" viewBox="0 0 52 52" fill="none" xmlns="http://www.w3.org/2000/svg">
<path d="M16 0.5H36C44.5604 0.5 51.5 7.43959 51.5 16V36C51.5 44.5604 44.5604 51.5 36 51.5H16C7.43959 51.5 0.5 44.5604 0.5 36V16C0.5 7.43959 7.43959 0.5 16 0.5Z" stroke="#2E2E2E"/>
<path d="M18.8002 18H33.1998C34.1821 18 34.9875 18.8322 35 19.8521L26.0031 25.0905L17.0083 19.8587C17.0166 18.8344 17.8158 18 18.8002 18ZM17.0083 21.8631L17 31.1258C17 32.1567 17.8096 33 18.8002 33H33.1998C34.1904 33 35 32.1567 35 31.1258V21.8587L26.2154 26.8521C26.0801 26.9294 25.9178 26.9294 25.7846 26.8521L17.0083 21.8631Z" fill="black"/>
</svg>
