<svg width="181" height="36" viewBox="0 0 181 36" fill="none" xmlns="http://www.w3.org/2000/svg">
<path d="M41.608 9.54545H44.7443V21.8182C44.7386 22.9432 44.5 23.9119 44.0284 24.7244C43.5568 25.5312 42.8977 26.1534 42.0511 26.5909C41.2102 27.0227 40.2301 27.2386 39.1108 27.2386C38.0881 27.2386 37.1676 27.0568 36.3494 26.6932C35.5369 26.3239 34.892 25.7784 34.4148 25.0568C33.9375 24.3352 33.6989 23.4375 33.6989 22.3636H36.8438C36.8494 22.8352 36.9517 23.2415 37.1506 23.5824C37.3551 23.9233 37.6364 24.1847 37.9943 24.3665C38.3523 24.5483 38.7642 24.6392 39.2301 24.6392C39.7358 24.6392 40.1648 24.5341 40.517 24.3239C40.8693 24.108 41.1364 23.7898 41.3182 23.3693C41.5057 22.9489 41.6023 22.4318 41.608 21.8182V9.54545ZM53.7486 27.2557C52.4702 27.2557 51.3622 26.9744 50.4247 26.4119C49.4872 25.8494 48.7599 25.0625 48.2429 24.0511C47.7315 23.0398 47.4759 21.858 47.4759 20.5057C47.4759 19.1534 47.7315 17.9687 48.2429 16.9517C48.7599 15.9347 49.4872 15.1449 50.4247 14.5824C51.3622 14.0199 52.4702 13.7386 53.7486 13.7386C55.027 13.7386 56.1349 14.0199 57.0724 14.5824C58.0099 15.1449 58.7344 15.9347 59.2457 16.9517C59.7628 17.9687 60.0213 19.1534 60.0213 20.5057C60.0213 21.858 59.7628 23.0398 59.2457 24.0511C58.7344 25.0625 58.0099 25.8494 57.0724 26.4119C56.1349 26.9744 55.027 27.2557 53.7486 27.2557ZM53.7656 24.7841C54.4588 24.7841 55.0384 24.5937 55.5043 24.2131C55.9702 23.8267 56.3168 23.3097 56.544 22.6619C56.777 22.0142 56.8935 21.2926 56.8935 20.4972C56.8935 19.696 56.777 18.9716 56.544 18.3239C56.3168 17.6705 55.9702 17.1506 55.5043 16.7642C55.0384 16.3778 54.4588 16.1847 53.7656 16.1847C53.0554 16.1847 52.4645 16.3778 51.9929 16.7642C51.527 17.1506 51.1776 17.6705 50.9446 18.3239C50.7173 18.9716 50.6037 19.696 50.6037 20.4972C50.6037 21.2926 50.7173 22.0142 50.9446 22.6619C51.1776 23.3097 51.527 23.8267 51.9929 24.2131C52.4645 24.5937 53.0554 24.7841 53.7656 24.7841ZM62.6399 27V13.9091H65.7251V27H62.6399ZM64.1911 12.0511C63.7024 12.0511 63.282 11.8892 62.9297 11.5653C62.5774 11.2358 62.4013 10.8409 62.4013 10.3807C62.4013 9.91477 62.5774 9.51989 62.9297 9.19602C63.282 8.86648 63.7024 8.7017 64.1911 8.7017C64.6854 8.7017 65.1058 8.86648 65.4524 9.19602C65.8047 9.51989 65.9808 9.91477 65.9808 10.3807C65.9808 10.8409 65.8047 11.2358 65.4524 11.5653C65.1058 11.8892 64.6854 12.0511 64.1911 12.0511ZM71.983 19.3295V27H68.8977V13.9091H71.8466V16.1335H72C72.3011 15.4006 72.7813 14.8182 73.4403 14.3864C74.1051 13.9545 74.9261 13.7386 75.9034 13.7386C76.8068 13.7386 77.5938 13.9318 78.2642 14.3182C78.9403 14.7045 79.4631 15.2642 79.8324 15.9972C80.2074 16.7301 80.392 17.6193 80.3864 18.6648V27H77.3011V19.142C77.3011 18.267 77.0739 17.5824 76.6193 17.0881C76.1705 16.5937 75.5483 16.3466 74.7528 16.3466C74.2131 16.3466 73.733 16.4659 73.3125 16.7045C72.8977 16.9375 72.571 17.2756 72.3324 17.7188C72.0994 18.1619 71.983 18.6989 71.983 19.3295ZM93.2855 27L88.3594 9.54545H91.7599L94.9048 22.3722H95.0668L98.4247 9.54545H101.518L104.885 22.3807H105.038L108.183 9.54545H111.584L106.658 27H103.538L100.044 14.7528H99.9077L96.4048 27H93.2855ZM118.099 27.2557C116.787 27.2557 115.653 26.983 114.699 26.4375C113.75 25.8864 113.02 25.108 112.509 24.1023C111.997 23.0909 111.741 21.9006 111.741 20.5312C111.741 19.1847 111.997 18.0028 112.509 16.9858C113.026 15.9631 113.747 15.1676 114.673 14.5994C115.599 14.0256 116.688 13.7386 117.938 13.7386C118.744 13.7386 119.506 13.8693 120.222 14.1307C120.943 14.3864 121.58 14.7841 122.131 15.3239C122.688 15.8636 123.125 16.5511 123.443 17.3864C123.761 18.2159 123.92 19.2045 123.92 20.3523V21.2983H113.19V19.2188H120.963C120.957 18.6278 120.83 18.1023 120.58 17.642C120.33 17.1761 119.98 16.8097 119.531 16.5426C119.088 16.2756 118.571 16.142 117.98 16.142C117.349 16.142 116.795 16.2955 116.318 16.6023C115.841 16.9034 115.469 17.3011 115.202 17.7955C114.94 18.2841 114.807 18.821 114.801 19.4062V21.2216C114.801 21.983 114.94 22.6364 115.219 23.1818C115.497 23.7216 115.886 24.1364 116.386 24.4261C116.886 24.7102 117.472 24.8523 118.142 24.8523C118.591 24.8523 118.997 24.7898 119.361 24.6648C119.724 24.5341 120.04 24.3438 120.307 24.0938C120.574 23.8438 120.776 23.5341 120.912 23.1648L123.793 23.4886C123.611 24.25 123.264 24.9148 122.753 25.483C122.247 26.0455 121.599 26.483 120.81 26.7955C120.02 27.1023 119.116 27.2557 118.099 27.2557ZM141.607 15.4347H138.42C138.329 14.9119 138.161 14.4489 137.917 14.0455C137.673 13.6364 137.369 13.2898 137.005 13.0057C136.641 12.7216 136.227 12.5085 135.761 12.3665C135.3 12.2188 134.803 12.1449 134.269 12.1449C133.32 12.1449 132.479 12.3835 131.746 12.8608C131.013 13.3324 130.44 14.0256 130.025 14.9403C129.61 15.8494 129.403 16.9602 129.403 18.2727C129.403 19.608 129.61 20.733 130.025 21.6477C130.445 22.5568 131.019 23.2443 131.746 23.7102C132.479 24.1705 133.317 24.4006 134.261 24.4006C134.783 24.4006 135.272 24.3324 135.727 24.196C136.187 24.054 136.599 23.8466 136.962 23.5739C137.332 23.3011 137.641 22.9659 137.891 22.5682C138.147 22.1705 138.323 21.7159 138.42 21.2045L141.607 21.2216C141.488 22.0511 141.229 22.8295 140.832 23.5568C140.44 24.2841 139.925 24.9261 139.289 25.483C138.653 26.0341 137.908 26.4659 137.056 26.7784C136.204 27.0852 135.258 27.2386 134.218 27.2386C132.684 27.2386 131.315 26.8835 130.11 26.1733C128.906 25.4631 127.957 24.4375 127.263 23.0966C126.57 21.7557 126.224 20.1477 126.224 18.2727C126.224 16.392 126.573 14.7841 127.272 13.4489C127.971 12.108 128.923 11.0824 130.127 10.3722C131.332 9.66193 132.695 9.30682 134.218 9.30682C135.19 9.30682 136.093 9.44318 136.928 9.71591C137.763 9.98864 138.508 10.3892 139.161 10.9176C139.815 11.4403 140.352 12.0824 140.772 12.8438C141.198 13.5994 141.477 14.4631 141.607 15.4347ZM147.452 19.3295V27H144.366V9.54545H147.384V16.1335H147.537C147.844 15.3949 148.318 14.8125 148.96 14.3864C149.608 13.9545 150.432 13.7386 151.432 13.7386C152.341 13.7386 153.134 13.929 153.81 14.3097C154.486 14.6903 155.009 15.2472 155.378 15.9801C155.753 16.7131 155.94 17.608 155.94 18.6648V27H152.855V19.142C152.855 18.2614 152.628 17.5767 152.173 17.0881C151.724 16.5937 151.094 16.3466 150.281 16.3466C149.736 16.3466 149.247 16.4659 148.815 16.7045C148.389 16.9375 148.054 17.2756 147.81 17.7188C147.571 18.1619 147.452 18.6989 147.452 19.3295ZM162.852 27.2642C162.023 27.2642 161.276 27.1165 160.611 26.821C159.952 26.5199 159.429 26.0767 159.043 25.4915C158.662 24.9062 158.472 24.1847 158.472 23.3267C158.472 22.5881 158.608 21.9773 158.881 21.4943C159.153 21.0114 159.526 20.625 159.997 20.3352C160.469 20.0455 161 19.8267 161.591 19.679C162.188 19.5256 162.804 19.4148 163.44 19.3466C164.207 19.267 164.83 19.196 165.307 19.1335C165.784 19.0653 166.131 18.9631 166.347 18.8267C166.568 18.6847 166.679 18.4659 166.679 18.1705V18.1193C166.679 17.4773 166.489 16.9801 166.108 16.6278C165.727 16.2756 165.179 16.0994 164.463 16.0994C163.707 16.0994 163.108 16.2642 162.665 16.5938C162.227 16.9233 161.932 17.3125 161.778 17.7614L158.898 17.3523C159.125 16.5568 159.5 15.892 160.023 15.358C160.545 14.8182 161.185 14.4148 161.94 14.1477C162.696 13.875 163.531 13.7386 164.446 13.7386C165.077 13.7386 165.705 13.8125 166.33 13.9602C166.955 14.108 167.526 14.3523 168.043 14.6932C168.56 15.0284 168.974 15.4858 169.287 16.0653C169.605 16.6449 169.764 17.3693 169.764 18.2386V27H166.798V25.2017H166.696C166.509 25.5653 166.244 25.9062 165.903 26.2244C165.568 26.5369 165.145 26.7898 164.634 26.983C164.128 27.1705 163.534 27.2642 162.852 27.2642ZM163.653 24.9972C164.273 24.9972 164.81 24.875 165.264 24.6307C165.719 24.3807 166.068 24.0511 166.312 23.642C166.562 23.233 166.688 22.7869 166.688 22.304V20.7614C166.591 20.8409 166.426 20.9148 166.193 20.983C165.966 21.0511 165.71 21.1108 165.426 21.1619C165.142 21.2131 164.861 21.2585 164.582 21.2983C164.304 21.3381 164.063 21.3722 163.858 21.4006C163.398 21.4631 162.986 21.5653 162.622 21.7074C162.259 21.8494 161.972 22.0483 161.761 22.304C161.551 22.554 161.446 22.8778 161.446 23.2756C161.446 23.8438 161.653 24.2727 162.068 24.5625C162.483 24.8523 163.011 24.9972 163.653 24.9972ZM179.403 13.9091V16.2955H171.878V13.9091H179.403ZM173.736 10.7727H176.821V23.0625C176.821 23.4773 176.884 23.7955 177.009 24.017C177.139 24.233 177.31 24.3807 177.52 24.4602C177.73 24.5398 177.963 24.5795 178.219 24.5795C178.412 24.5795 178.588 24.5653 178.747 24.5369C178.912 24.5085 179.037 24.483 179.122 24.4602L179.642 26.8722C179.477 26.929 179.241 26.9915 178.935 27.0597C178.634 27.1278 178.264 27.1676 177.827 27.179C177.054 27.2017 176.358 27.0852 175.739 26.8295C175.119 26.5682 174.628 26.1648 174.264 25.6193C173.906 25.0739 173.73 24.392 173.736 23.5739V10.7727Z" fill="black"/>
<path d="M19.8741 8.94485C24.345 9.05966 28.0565 12.271 29.0001 16.5424H24.0725C23.2827 14.8574 21.5891 13.6921 19.6265 13.692C16.9092 13.6921 14.7062 15.9252 14.7062 18.6799C14.7064 21.4345 16.9093 23.6677 19.6265 23.6678C21.5888 23.6677 23.2826 22.5027 24.0725 20.818H29.0001C28.0387 25.1675 24.2071 28.4177 19.6265 28.4179L19.3783 28.415C14.27 28.2837 10.1529 24.1095 10.0234 18.931L10.02 18.6799C10.02 13.3017 14.3212 8.94146 19.6265 8.94141L19.8741 8.94485Z" fill="#F79F1B"/>
<path d="M9.85414 9.17923C11.4877 9.22118 13.02 9.67647 14.3528 10.4459C13.9254 10.7153 13.5134 11.0218 13.122 11.3667L12.9373 11.5333C12.1139 12.297 11.4532 13.1736 10.9557 14.1177C10.5269 13.994 10.0745 13.9265 9.60651 13.9264C6.88912 13.9264 4.68624 16.1596 4.68624 18.9143C4.68638 21.6689 6.88921 23.9022 9.60651 23.9022C12.2831 23.9021 14.4588 21.735 14.5234 19.0373L14.5291 19.0436C14.5272 19.017 14.5265 18.9903 14.5251 18.9637C14.5252 18.9473 14.5268 18.9308 14.5268 18.9143C14.5268 18.8195 14.5234 18.7253 14.5183 18.6317C14.533 17.3113 15.064 16.0003 16.101 15.0386C16.6337 14.5444 17.2455 14.1935 17.8905 13.9822C18.7303 15.4287 19.2125 17.1144 19.2125 18.9143L19.2096 19.1654C19.0782 24.4274 14.8289 28.6521 9.60651 28.6523L9.35832 28.6494C4.24989 28.5182 0.132798 24.344 0.00339993 19.1654L0 18.9143C6.66461e-07 13.536 4.30113 9.17578 9.60651 9.17578L9.85414 9.17923Z" fill="url(#paint0_linear_7445_12058)"/>
<defs>
<linearGradient id="paint0_linear_7445_12058" x1="0" y1="18.914" x2="19.2125" y2="18.914" gradientUnits="userSpaceOnUse">
<stop stop-color="#EB001B"/>
<stop offset="0.890885" stop-color="#FE5F00"/>
</linearGradient>
</defs>
</svg>
