<svg width="168" height="36" viewBox="0 0 168 36" fill="none" xmlns="http://www.w3.org/2000/svg">
<path d="M19.8741 8.94485C24.345 9.05966 28.0565 12.271 29.0001 16.5424H24.0725C23.2827 14.8574 21.5891 13.6921 19.6265 13.692C16.9092 13.6921 14.7062 15.9252 14.7062 18.6799C14.7064 21.4345 16.9093 23.6677 19.6265 23.6678C21.5888 23.6677 23.2826 22.5027 24.0725 20.818H29.0001C28.0387 25.1675 24.2071 28.4177 19.6265 28.4179L19.3783 28.415C14.27 28.2837 10.1529 24.1095 10.0234 18.931L10.02 18.6799C10.02 13.3017 14.3212 8.94146 19.6265 8.94141L19.8741 8.94485Z" fill="#F79F1B"/>
<path d="M9.85414 9.17923C11.4877 9.22118 13.02 9.67647 14.3528 10.4459C13.9254 10.7153 13.5134 11.0218 13.122 11.3667L12.9373 11.5333C12.1139 12.297 11.4532 13.1736 10.9557 14.1177C10.5269 13.994 10.0745 13.9265 9.60651 13.9264C6.88912 13.9264 4.68624 16.1596 4.68624 18.9143C4.68638 21.6689 6.88921 23.9022 9.60651 23.9022C12.2831 23.9021 14.4588 21.735 14.5234 19.0373L14.5291 19.0436C14.5272 19.017 14.5265 18.9903 14.5251 18.9637C14.5252 18.9473 14.5268 18.9308 14.5268 18.9143C14.5268 18.8195 14.5234 18.7253 14.5183 18.6317C14.533 17.3113 15.064 16.0003 16.101 15.0386C16.6337 14.5444 17.2455 14.1935 17.8905 13.9822C18.7303 15.4287 19.2125 17.1144 19.2125 18.9143L19.2096 19.1654C19.0782 24.4274 14.8289 28.6521 9.60651 28.6523L9.35832 28.6494C4.24989 28.5182 0.132798 24.344 0.00339993 19.1654L0 18.9143C6.66461e-07 13.536 4.30113 9.17578 9.60651 9.17578L9.85414 9.17923Z" fill="url(#paint0_linear_7331_9207)"/>
<path d="M39.8906 10H42.7656V21.25C42.7604 22.2812 42.5417 23.1693 42.1094 23.9141C41.6771 24.6536 41.0729 25.224 40.2969 25.625C39.526 26.0208 38.6276 26.2187 37.6016 26.2187C36.6641 26.2187 35.8203 26.0521 35.0703 25.7187C34.3255 25.3802 33.7344 24.8802 33.2969 24.2187C32.8594 23.5573 32.6406 22.7344 32.6406 21.75H35.5234C35.5286 22.1823 35.6224 22.5547 35.8047 22.8672C35.9922 23.1797 36.25 23.4193 36.5781 23.5859C36.9063 23.7526 37.2839 23.8359 37.7109 23.8359C38.1745 23.8359 38.5677 23.7396 38.8906 23.5469C39.2135 23.349 39.4583 23.0573 39.625 22.6719C39.7969 22.2865 39.8854 21.8125 39.8906 21.25V10ZM51.0195 26.2344C49.8477 26.2344 48.832 25.9766 47.9727 25.4609C47.1133 24.9453 46.4466 24.224 45.9727 23.2969C45.5039 22.3698 45.2695 21.2865 45.2695 20.0469C45.2695 18.8073 45.5039 17.7214 45.9727 16.7891C46.4466 15.8568 47.1133 15.1328 47.9727 14.6172C48.832 14.1016 49.8477 13.8438 51.0195 13.8438C52.1914 13.8438 53.207 14.1016 54.0664 14.6172C54.9258 15.1328 55.5898 15.8568 56.0586 16.7891C56.5326 17.7214 56.7695 18.8073 56.7695 20.0469C56.7695 21.2865 56.5326 22.3698 56.0586 23.2969C55.5898 24.224 54.9258 24.9453 54.0664 25.4609C53.207 25.9766 52.1914 26.2344 51.0195 26.2344ZM51.0352 23.9687C51.6706 23.9687 52.2018 23.7943 52.6289 23.4453C53.056 23.0911 53.3737 22.6172 53.582 22.0234C53.7956 21.4297 53.9023 20.7682 53.9023 20.0391C53.9023 19.3047 53.7956 18.6406 53.582 18.0469C53.3737 17.4479 53.056 16.9714 52.6289 16.6172C52.2018 16.263 51.6706 16.0859 51.0352 16.0859C50.3841 16.0859 49.8424 16.263 49.4102 16.6172C48.9831 16.9714 48.6628 17.4479 48.4492 18.0469C48.2409 18.6406 48.1367 19.3047 48.1367 20.0391C48.1367 20.7682 48.2409 21.4297 48.4492 22.0234C48.6628 22.6172 48.9831 23.0911 49.4102 23.4453C49.8424 23.7943 50.3841 23.9687 51.0352 23.9687ZM59.1699 26V14H61.998V26H59.1699ZM60.5918 12.2969C60.1439 12.2969 59.7585 12.1484 59.4355 11.8516C59.1126 11.5495 58.9512 11.1875 58.9512 10.7656C58.9512 10.3385 59.1126 9.97656 59.4355 9.67969C59.7585 9.3776 60.1439 9.22656 60.5918 9.22656C61.0449 9.22656 61.4303 9.3776 61.748 9.67969C62.071 9.97656 62.2324 10.3385 62.2324 10.7656C62.2324 11.1875 62.071 11.5495 61.748 11.8516C61.4303 12.1484 61.0449 12.2969 60.5918 12.2969ZM67.7344 18.9687V26H64.9063V14H67.6094V16.0391H67.75C68.026 15.3672 68.4661 14.8333 69.0703 14.4375C69.6797 14.0417 70.4323 13.8438 71.3281 13.8438C72.1563 13.8438 72.8776 14.0208 73.4922 14.375C74.112 14.7292 74.5911 15.2422 74.9297 15.9141C75.2734 16.5859 75.4427 17.401 75.4375 18.3594V26H72.6094V18.7969C72.6094 17.9948 72.401 17.3672 71.9844 16.9141C71.5729 16.4609 71.0026 16.2344 70.2734 16.2344C69.7786 16.2344 69.3385 16.3437 68.9531 16.5625C68.5729 16.776 68.2734 17.0859 68.0547 17.4922C67.8411 17.8984 67.7344 18.3906 67.7344 18.9687ZM87.2617 26L82.7461 10H85.8633L88.7461 21.7578H88.8945L91.9727 10H94.8086L97.8945 21.7656H98.0352L100.918 10H104.035L99.5195 26H96.6602L93.457 14.7734H93.332L90.1211 26H87.2617ZM110.008 26.2344C108.805 26.2344 107.766 25.9844 106.891 25.4844C106.021 24.9792 105.352 24.2656 104.883 23.3437C104.414 22.4167 104.18 21.3255 104.18 20.0703C104.18 18.8359 104.414 17.7526 104.883 16.8203C105.357 15.8828 106.018 15.1536 106.867 14.6328C107.716 14.1068 108.714 13.8438 109.859 13.8438C110.599 13.8438 111.297 13.9635 111.953 14.2031C112.615 14.4375 113.198 14.8021 113.703 15.2969C114.214 15.7917 114.615 16.4219 114.906 17.1875C115.198 17.9479 115.344 18.8542 115.344 19.9062V20.7734H105.508V18.8672H112.633C112.628 18.3255 112.51 17.8437 112.281 17.4219C112.052 16.9948 111.732 16.6589 111.32 16.4141C110.914 16.1693 110.44 16.0469 109.898 16.0469C109.32 16.0469 108.813 16.1875 108.375 16.4687C107.938 16.7448 107.596 17.1094 107.352 17.5625C107.112 18.0104 106.99 18.5026 106.984 19.0391V20.7031C106.984 21.401 107.112 22 107.367 22.5C107.622 22.9948 107.979 23.375 108.438 23.6406C108.896 23.901 109.432 24.0312 110.047 24.0312C110.458 24.0312 110.831 23.974 111.164 23.8594C111.497 23.7396 111.786 23.5651 112.031 23.3359C112.276 23.1068 112.461 22.8229 112.586 22.4844L115.227 22.7812C115.06 23.4792 114.742 24.0885 114.273 24.6094C113.81 25.125 113.216 25.526 112.492 25.8125C111.768 26.0937 110.94 26.2344 110.008 26.2344ZM131.557 15.3984H128.635C128.551 14.9193 128.398 14.4948 128.174 14.125C127.95 13.75 127.671 13.4323 127.338 13.1719C127.005 12.9115 126.624 12.7161 126.197 12.5859C125.775 12.4505 125.32 12.3828 124.83 12.3828C123.96 12.3828 123.189 12.6016 122.518 13.0391C121.846 13.4714 121.32 14.1068 120.939 14.9453C120.559 15.7786 120.369 16.7969 120.369 18C120.369 19.224 120.559 20.2552 120.939 21.0937C121.325 21.9271 121.851 22.5573 122.518 22.9844C123.189 23.4062 123.958 23.6172 124.822 23.6172C125.301 23.6172 125.749 23.5547 126.166 23.4297C126.588 23.2995 126.965 23.1094 127.299 22.8594C127.637 22.6094 127.921 22.3021 128.15 21.9375C128.385 21.5729 128.546 21.1562 128.635 20.6875L131.557 20.7031C131.447 21.4635 131.21 22.1771 130.846 22.8438C130.486 23.5104 130.015 24.099 129.432 24.6094C128.848 25.1146 128.166 25.5104 127.385 25.7969C126.604 26.0781 125.736 26.2187 124.783 26.2187C123.377 26.2187 122.122 25.8932 121.018 25.2422C119.913 24.5911 119.044 23.651 118.408 22.4219C117.773 21.1927 117.455 19.7187 117.455 18C117.455 16.276 117.775 14.8021 118.416 13.5781C119.057 12.349 119.929 11.4089 121.033 10.7578C122.137 10.1068 123.387 9.78125 124.783 9.78125C125.674 9.78125 126.502 9.90625 127.268 10.1562C128.033 10.4062 128.715 10.7734 129.314 11.2578C129.913 11.737 130.406 12.3255 130.791 13.0234C131.182 13.7161 131.437 14.5078 131.557 15.3984ZM136.914 18.9687V26H134.086V10H136.852V16.0391H136.992C137.273 15.362 137.708 14.8281 138.297 14.4375C138.891 14.0417 139.646 13.8438 140.563 13.8438C141.396 13.8438 142.122 14.0182 142.742 14.3672C143.362 14.7161 143.841 15.2266 144.18 15.8984C144.523 16.5703 144.695 17.3906 144.695 18.3594V26H141.867V18.7969C141.867 17.9896 141.659 17.362 141.242 16.9141C140.831 16.4609 140.253 16.2344 139.508 16.2344C139.008 16.2344 138.56 16.3437 138.164 16.5625C137.773 16.776 137.466 17.0859 137.242 17.4922C137.023 17.8984 136.914 18.3906 136.914 18.9687ZM151.031 26.2422C150.271 26.2422 149.586 26.1068 148.977 25.8359C148.372 25.5599 147.893 25.1536 147.539 24.6172C147.19 24.0807 147.016 23.4193 147.016 22.6328C147.016 21.9557 147.141 21.3958 147.391 20.9531C147.641 20.5104 147.982 20.1562 148.414 19.8906C148.846 19.625 149.333 19.4245 149.875 19.2891C150.422 19.1484 150.987 19.0469 151.57 18.9844C152.273 18.9115 152.844 18.8464 153.281 18.7891C153.719 18.7266 154.036 18.6328 154.234 18.5078C154.438 18.3776 154.539 18.1771 154.539 17.9062V17.8594C154.539 17.2708 154.365 16.8151 154.016 16.4922C153.667 16.1693 153.164 16.0078 152.508 16.0078C151.815 16.0078 151.266 16.1589 150.859 16.4609C150.458 16.763 150.188 17.1198 150.047 17.5312L147.406 17.1562C147.615 16.4271 147.958 15.8177 148.438 15.3281C148.917 14.8333 149.503 14.4635 150.195 14.2187C150.888 13.9688 151.654 13.8438 152.492 13.8438C153.07 13.8438 153.646 13.9115 154.219 14.0469C154.792 14.1823 155.315 14.4062 155.789 14.7187C156.263 15.026 156.643 15.4453 156.93 15.9766C157.221 16.5078 157.367 17.1719 157.367 17.9687V26H154.648V24.3516H154.555C154.383 24.6849 154.141 24.9974 153.828 25.2891C153.521 25.5755 153.133 25.8073 152.664 25.9844C152.201 26.1563 151.656 26.2422 151.031 26.2422ZM151.766 24.1641C152.333 24.1641 152.826 24.0521 153.242 23.8281C153.659 23.599 153.979 23.2969 154.203 22.9219C154.432 22.5469 154.547 22.138 154.547 21.6953V20.2812C154.458 20.3542 154.307 20.4219 154.094 20.4844C153.885 20.5469 153.651 20.6016 153.391 20.6484C153.13 20.6953 152.872 20.737 152.617 20.7734C152.362 20.8099 152.141 20.8411 151.953 20.8672C151.531 20.9245 151.154 21.0182 150.82 21.1484C150.487 21.2786 150.224 21.4609 150.031 21.6953C149.839 21.9245 149.742 22.2214 149.742 22.5859C149.742 23.1068 149.932 23.5 150.313 23.7656C150.693 24.0312 151.177 24.1641 151.766 24.1641ZM166.203 14V16.1875H159.305V14H166.203ZM161.008 11.125H163.836V22.3906C163.836 22.7708 163.893 23.0625 164.008 23.2656C164.128 23.4635 164.284 23.599 164.477 23.6719C164.669 23.7448 164.883 23.7812 165.117 23.7812C165.294 23.7812 165.456 23.7682 165.602 23.7422C165.753 23.7161 165.867 23.6927 165.945 23.6719L166.422 25.8828C166.271 25.9349 166.055 25.9922 165.773 26.0547C165.497 26.1172 165.159 26.1536 164.758 26.1641C164.049 26.1849 163.411 26.0781 162.844 25.8437C162.276 25.6042 161.826 25.2344 161.492 24.7344C161.164 24.2344 161.003 23.6094 161.008 22.8594V11.125Z" fill="black"/>
<defs>
<linearGradient id="paint0_linear_7331_9207" x1="0" y1="18.914" x2="19.2125" y2="18.914" gradientUnits="userSpaceOnUse">
<stop stop-color="#EB001B"/>
<stop offset="0.890885" stop-color="#FE5F00"/>
</linearGradient>
</defs>
</svg>
