<svg width="98" height="17" viewBox="0 0 98 17" fill="none" xmlns="http://www.w3.org/2000/svg">
<path d="M17.0286 0.00295309C20.8592 0.101318 24.0392 2.85283 24.8477 6.51256H20.6257C19.9491 5.06883 18.498 4.07043 16.8164 4.07035C14.4882 4.0704 12.6007 5.98374 12.6007 8.34396C12.6009 10.7041 14.4883 12.6175 16.8164 12.6176C18.4977 12.6175 19.9489 11.6193 20.6257 10.1759H24.8477C24.024 13.9025 20.741 16.6873 16.8164 16.6874L16.6038 16.685C12.2269 16.5725 8.69939 12.996 8.58848 8.55905L8.58557 8.34396C8.58557 3.73587 12.2708 4.88351e-05 16.8164 0L17.0286 0.00295309Z" fill="#F79F1B"/>
<path d="M8.44303 0.206078C9.84267 0.242019 11.1555 0.632111 12.2975 1.29134C11.9313 1.52215 11.5783 1.78479 11.243 2.08031L11.0847 2.22305C10.3792 2.87739 9.8131 3.62842 9.38686 4.43738C9.01943 4.33135 8.63183 4.2735 8.23086 4.27348C5.9026 4.27348 4.01517 6.18685 4.01517 8.54711C4.01529 10.9073 5.90267 12.8207 8.23086 12.8207C10.5242 12.8206 12.3883 10.9638 12.4436 8.65244L12.4485 8.65785C12.4469 8.63507 12.4463 8.61223 12.4451 8.58944C12.4452 8.57534 12.4466 8.56124 12.4466 8.54711C12.4466 8.46583 12.4437 8.38512 12.4393 8.30496C12.4519 7.17365 12.9069 6.05038 13.7953 5.22635C14.2518 4.80298 14.776 4.50233 15.3285 4.32122C16.0481 5.56066 16.4612 7.00491 16.4612 8.54711L16.4588 8.76219C16.3462 13.2707 12.7054 16.8905 8.23086 16.8906L8.01821 16.8881C3.64131 16.7757 0.113781 13.1993 0.00291306 8.76219L0 8.54711C5.71024e-07 3.93898 3.68521 0.203125 8.23086 0.203125L8.44303 0.206078Z" fill="url(#paint0_linear_8716_971)"/>
<path d="M91.0943 7.19838L90.169 15.0147H88.1986L89.3637 5.33984H93.6644C96.0289 5.33984 97.2111 6.43991 97.2111 8.64005C97.2111 8.90638 97.194 9.19587 97.1597 9.50853L96.4915 15.0147H94.5211L95.1893 9.45642C95.2121 9.22482 95.2236 9.06271 95.2236 8.97007C95.2236 7.78894 94.6296 7.19838 93.4416 7.19838H91.0943Z" fill="#0E0E0E"/>
<path d="M85.1325 4.04137L85.3895 1.95703H87.6341L87.3771 4.04137H85.1325ZM85.9207 15.0189H83.9503L85.1325 5.34409H87.1029L85.9207 15.0189Z" fill="#0E0E0E"/>
<path d="M76.7997 15.0147C75.943 15.0147 75.2576 14.7715 74.7436 14.2851C74.2296 13.7872 73.9726 13.1445 73.9726 12.3571C73.9726 12.1834 73.9783 12.0503 73.9897 11.9576C74.0925 11.2397 74.2753 10.6723 74.538 10.2554C74.8007 9.82697 75.1777 9.52011 75.6689 9.33483C76.1715 9.13798 76.8283 9.03955 77.6393 9.03955H80.5178L80.5349 8.90059C80.5463 8.84269 80.5521 8.76164 80.5521 8.65742C80.5521 8.20581 80.4036 7.84105 80.1066 7.56314C79.8096 7.28523 79.347 7.14627 78.7187 7.14627H78.2732C77.2566 7.14627 76.3428 7.17522 75.5318 7.23312L75.7888 5.46143L76.2857 5.42669C76.4685 5.41511 76.7883 5.39774 77.2452 5.37458C77.7135 5.35142 78.119 5.33984 78.4617 5.33984H78.9243C80.1009 5.33984 80.9918 5.62355 81.5972 6.19095C82.2026 6.75835 82.5053 7.51682 82.5053 8.46636C82.5053 8.57057 82.4939 8.75006 82.4711 9.00481L81.7686 15.0147H76.7997ZM75.943 12.1661C75.943 12.5019 76.0344 12.7624 76.2172 12.9477C76.4113 13.1214 76.6855 13.2082 77.0396 13.2082H80.0209L80.3122 10.7765L77.4679 10.7591C77.0339 10.7476 76.6855 10.8344 76.4228 11.0197C76.1715 11.1934 76.0173 11.506 75.9601 11.9576L75.943 12.1661Z" fill="#0E0E0E"/>
<path d="M65.3143 1.625H67.2847L66.8393 5.34207H69.1695C71.534 5.34207 72.7162 6.44214 72.7162 8.64228C72.7162 8.90861 72.6991 9.19811 72.6648 9.51076L71.9966 15.0169H70.0262L70.6944 9.45865C70.7173 9.22706 70.7287 9.06494 70.7287 8.9723C70.7287 7.79118 70.1347 7.20061 68.9467 7.20061H66.6165L65.6742 15.0169H63.7037L65.3143 1.625Z" fill="#0E0E0E"/>
<path d="M59.971 1.97266C60.4507 1.97266 61.1361 1.98424 62.027 2.00739L63.0894 2.02477L62.8323 3.95278L61.8386 3.91804C60.6963 3.89488 59.9824 3.8833 59.6968 3.8833H58.9429C57.9035 3.8833 57.1267 4.14963 56.6127 4.6823C56.1101 5.21496 55.7788 6.07765 55.6189 7.27036L55.3105 9.78893C55.2648 10.2521 55.242 10.5764 55.242 10.7616C55.242 11.6069 55.4362 12.2207 55.8245 12.6028C56.2243 12.9849 56.8754 13.176 57.7778 13.176H58.6002C59.2056 13.176 60.188 13.1355 61.5473 13.0544L61.9756 13.037L61.8386 14.9477C60.7191 15.0403 59.5826 15.0866 58.4289 15.0866H57.6065C56.0987 15.0751 54.9907 14.745 54.2825 14.0966C53.5743 13.4481 53.2202 12.4291 53.2202 11.0395C53.2202 10.6806 53.2487 10.229 53.3058 9.68472L53.5628 7.37457C53.8027 5.48709 54.3681 4.12069 55.2591 3.27537C56.1615 2.41847 57.4808 1.98424 59.2171 1.97266H59.971Z" fill="#0E0E0E"/>
<path d="M45.0569 7.19838L44.1317 15.0147H42.1613L43.3264 5.33984H47.627C49.9915 5.33984 51.1738 6.43991 51.1738 8.64005C51.1738 8.90638 51.1566 9.19587 51.1224 9.50853L50.4541 15.0147H48.4837L49.1519 9.45642C49.1748 9.22482 49.1862 9.06271 49.1862 8.97007C49.1862 7.78894 48.5922 7.19838 47.4043 7.19838H45.0569Z" fill="#0E0E0E"/>
<path d="M36.6857 1.90234C38.1935 1.91392 39.3015 2.24973 40.0097 2.90978C40.7179 3.55824 41.072 4.58304 41.072 5.98418C41.072 6.34315 41.0435 6.78318 40.9864 7.30426L40.7294 9.68388C40.4781 11.5714 39.9069 12.9436 39.016 13.8005C38.125 14.6458 36.8114 15.0742 35.0751 15.0858H33.8072C32.2994 15.0742 31.1914 14.7442 30.4832 14.0957C29.775 13.4473 29.4209 12.4283 29.4209 11.0387C29.4209 10.6797 29.4495 10.2281 29.5066 9.68388L29.7636 7.30426C30.0035 5.41677 30.5689 4.05037 31.4598 3.20506C32.3622 2.34816 33.6816 1.91392 35.4178 1.90234H36.6857ZM31.5112 9.7881C31.4656 10.2513 31.4427 10.5755 31.4427 10.7608C31.4427 11.6061 31.6369 12.2198 32.0253 12.602C32.4251 12.9725 33.0762 13.1636 33.9785 13.1752H35.3493C36.3887 13.1636 37.1598 12.8972 37.6624 12.3762C38.1764 11.8435 38.5134 10.9808 38.6733 9.7881L38.9817 7.20004C39.0274 6.73686 39.0502 6.41263 39.0502 6.22735C39.0502 5.38204 38.8503 4.7741 38.4505 4.40355C38.0622 4.02142 37.4168 3.82457 36.5144 3.81299H35.1437C34.1042 3.82457 33.3275 4.09669 32.8134 4.62936C32.3108 5.15044 31.9796 6.00734 31.8197 7.20004L31.5112 9.7881Z" fill="#0E0E0E"/>
<defs>
<linearGradient id="paint0_linear_8716_971" x1="0" y1="8.54686" x2="16.4612" y2="8.54686" gradientUnits="userSpaceOnUse">
<stop stop-color="#EB001B"/>
<stop offset="0.890885" stop-color="#FE5F00"/>
</linearGradient>
</defs>
</svg>
