<svg width="124" height="23" viewBox="0 0 124 23" fill="none" xmlns="http://www.w3.org/2000/svg">
<path d="M21.6966 0.851419C26.5773 0.976748 30.629 4.48252 31.6591 9.14548H26.2798C25.4176 7.30599 23.5687 6.03391 21.4262 6.03379C18.4598 6.03386 16.0549 8.4717 16.0549 11.4789C16.0551 14.486 18.4599 16.924 21.4262 16.9241C23.5684 16.9239 25.4175 15.6521 26.2798 13.813H31.6591C30.6096 18.5612 26.4267 22.1094 21.4262 22.1096L21.1553 22.1064C15.5786 21.9632 11.0841 17.4062 10.9428 11.753L10.9391 11.4789C10.9391 5.60763 15.6345 0.847718 21.4262 0.847656L21.6966 0.851419Z" fill="#F79F1B"/>
<path d="M10.7575 1.10923C12.5408 1.15502 14.2135 1.65205 15.6686 2.492C15.2019 2.78607 14.7522 3.12072 14.325 3.49724L14.1233 3.6791C13.2244 4.51282 12.5031 5.46972 11.9601 6.50044C11.4919 6.36535 10.998 6.29165 10.4872 6.29162C7.52066 6.29162 5.11584 8.72949 5.11584 11.7368C5.11599 14.7439 7.52075 17.1819 10.4872 17.1819C13.4092 17.1818 15.7843 14.816 15.8548 11.871L15.861 11.8779C15.8589 11.8488 15.8582 11.8197 15.8566 11.7907C15.8568 11.7727 15.8585 11.7548 15.8585 11.7368C15.8585 11.6332 15.8548 11.5304 15.8492 11.4282C15.8653 9.9868 16.445 8.55561 17.577 7.50569C18.1586 6.96627 18.8265 6.5832 19.5305 6.35245C20.4474 7.93164 20.9737 9.7718 20.9737 11.7368L20.9706 12.0108C20.8271 17.7553 16.1883 22.3673 10.4872 22.3674L10.2162 22.3643C4.63949 22.2211 0.144972 17.6642 0.00371161 12.0108L0 11.7368C7.27557e-07 5.86542 4.69542 1.10547 10.4872 1.10547L10.7575 1.10923Z" fill="url(#paint0_linear_8716_945)"/>
<path d="M116.066 10.0204L114.887 19.9793H112.376L113.861 7.65234H119.34C122.353 7.65234 123.859 9.05397 123.859 11.8572C123.859 12.1966 123.837 12.5654 123.794 12.9638L122.942 19.9793H120.432L121.283 12.8974C121.312 12.6023 121.327 12.3957 121.327 12.2777C121.327 10.7728 120.57 10.0204 119.056 10.0204H116.066Z" fill="#0E0E0E"/>
<path d="M108.47 5.99556L108.797 3.33984H111.657L111.329 5.99556H108.47ZM109.474 19.9823H106.963L108.47 7.65538H110.98L109.474 19.9823Z" fill="#0E0E0E"/>
<path d="M97.8526 19.9793C96.761 19.9793 95.8878 19.6695 95.2329 19.0498C94.578 18.4154 94.2505 17.5965 94.2505 16.5933C94.2505 16.3719 94.2578 16.2023 94.2723 16.0842C94.4033 15.1695 94.6362 14.4465 94.9709 13.9154C95.3057 13.3695 95.7859 12.9785 96.4117 12.7425C97.0521 12.4916 97.889 12.3662 98.9223 12.3662H102.59L102.612 12.1892C102.626 12.1154 102.634 12.0121 102.634 11.8794C102.634 11.304 102.444 10.8392 102.066 10.4851C101.688 10.131 101.098 9.95396 100.298 9.95396H99.73C98.4347 9.95396 97.2704 9.99085 96.2371 10.0646L96.5646 7.80726L97.1977 7.763C97.4305 7.74824 97.838 7.72611 98.4202 7.69661C99.0169 7.6671 99.5336 7.65234 99.9702 7.65234H100.56C102.059 7.65234 103.194 8.01382 103.965 8.73676C104.737 9.45971 105.122 10.4261 105.122 11.6359C105.122 11.7687 105.108 11.9974 105.079 12.322L104.184 19.9793H97.8526ZM96.761 16.3498C96.761 16.7777 96.8775 17.1096 97.1103 17.3457C97.3578 17.567 97.707 17.6777 98.1582 17.6777H101.957L102.328 14.5793L98.704 14.5572C98.1509 14.5424 97.707 14.6531 97.3723 14.8892C97.0521 15.1105 96.8556 15.5088 96.7829 16.0842L96.761 16.3498Z" fill="#0E0E0E"/>
<path d="M83.2187 2.91797H85.7293L85.1617 7.65399H88.1307C91.1434 7.65399 92.6497 9.05562 92.6497 11.8589C92.6497 12.1982 92.6279 12.5671 92.5842 12.9654L91.7328 19.9809H89.2222L90.0736 12.899C90.1028 12.6039 90.1173 12.3974 90.1173 12.2794C90.1173 10.7745 89.3605 10.022 87.8469 10.022H84.8779L83.6772 19.9809H81.1666L83.2187 2.91797Z" fill="#0E0E0E"/>
<path d="M76.4106 3.35938C77.0219 3.35938 77.8951 3.37413 79.0303 3.40364L80.3838 3.42577L80.0563 5.8823L78.7902 5.83804C77.3348 5.80853 76.4251 5.79378 76.0613 5.79378H75.1007C73.7763 5.79378 72.7867 6.13312 72.1317 6.8118C71.4914 7.49049 71.0693 8.58966 70.8655 10.1093L70.4726 13.3183C70.4144 13.9085 70.3853 14.3216 70.3853 14.5576C70.3853 15.6347 70.6327 16.4166 71.1275 16.9035C71.6369 17.3904 72.4665 17.6338 73.6162 17.6338H74.6641C75.4355 17.6338 76.6871 17.5822 78.419 17.4789L78.9648 17.4568L78.7902 19.8912C77.3639 20.0092 75.9158 20.0682 74.4458 20.0682H73.3979C71.4768 20.0535 70.0651 19.633 69.1627 18.8068C68.2604 17.9806 67.8092 16.6822 67.8092 14.9117C67.8092 14.4544 67.8456 13.879 67.9184 13.1855L68.2458 10.2421C68.5515 7.8372 69.2719 6.09624 70.4071 5.0192C71.5568 3.9274 73.2378 3.37413 75.45 3.35938H76.4106Z" fill="#0E0E0E"/>
<path d="M57.4081 10.0204L56.2292 19.9793H53.7186L55.2031 7.65234H60.6827C63.6954 7.65234 65.2017 9.05397 65.2017 11.8572C65.2017 12.1966 65.1799 12.5654 65.1362 12.9638L64.2848 19.9793H61.7742L62.6256 12.8974C62.6548 12.6023 62.6693 12.3957 62.6693 12.2777C62.6693 10.7728 61.9125 10.0204 60.3989 10.0204H57.4081Z" fill="#0E0E0E"/>
<path d="M46.7421 3.26953C48.6633 3.28429 50.075 3.71215 50.9773 4.55313C51.8797 5.37935 52.3309 6.68508 52.3309 8.4703C52.3309 8.92768 52.2945 9.48833 52.2217 10.1523L51.8942 13.1842C51.5741 15.5891 50.8464 17.3374 49.7112 18.4292C48.5759 19.5063 46.9022 20.0522 44.69 20.0669H43.0746C41.1534 20.0522 39.7417 19.6317 38.8394 18.8055C37.937 17.9792 37.4858 16.6809 37.4858 14.9104C37.4858 14.453 37.5222 13.8776 37.595 13.1842L37.9225 10.1523C38.2281 7.74736 38.9485 6.00639 40.0837 4.92935C41.2335 3.83756 42.9145 3.28429 45.1267 3.26953H46.7421ZM40.1492 13.317C40.091 13.9071 40.0619 14.3203 40.0619 14.5563C40.0619 15.6334 40.3093 16.4153 40.8041 16.9022C41.3135 17.3743 42.1431 17.6178 43.2929 17.6325H45.0393C46.3637 17.6178 47.3461 17.2784 47.9865 16.6145C48.6414 15.9358 49.0708 14.8366 49.2745 13.317L49.6675 10.0195C49.7257 9.42931 49.7548 9.0162 49.7548 8.78014C49.7548 7.7031 49.5001 6.92852 48.9907 6.45639C48.4959 5.96951 47.6736 5.71869 46.5238 5.70394H44.7774C43.453 5.71869 42.4633 6.06541 41.8084 6.74409C41.168 7.40802 40.7459 8.49981 40.5422 10.0195L40.1492 13.317Z" fill="#0E0E0E"/>
<defs>
<linearGradient id="paint0_linear_8716_945" x1="0" y1="11.7364" x2="20.9737" y2="11.7364" gradientUnits="userSpaceOnUse">
<stop stop-color="#EB001B"/>
<stop offset="0.890885" stop-color="#FE5F00"/>
</linearGradient>
</defs>
</svg>
