<svg width="18" height="18" viewBox="0 0 18 18" fill="none" xmlns="http://www.w3.org/2000/svg">
<g clip-path="url(#clip0_7438_1514)">
<path d="M0 9C0 11.3869 0.948212 13.6761 2.63604 15.364C4.32387 17.0518 6.61305 18 9 18C11.3869 18 13.6761 17.0518 15.364 15.364C17.0518 13.6761 18 11.3869 18 9C18 6.61305 17.0518 4.32387 15.364 2.63604C13.6761 0.948212 11.3869 0 9 0C6.61305 0 4.32387 0.948212 2.63604 2.63604C0.948212 4.32387 0 6.61305 0 9Z" fill="black"/>
<path d="M7.22847 4.29688H4.50808C4.45258 4.29688 4.39936 4.31892 4.36012 4.35816C4.32087 4.3974 4.29883 4.45063 4.29883 4.50613V7.22652C4.29883 7.28201 4.32087 7.33524 4.36012 7.37448C4.39936 7.41372 4.45258 7.43577 4.50808 7.43577H7.22847C7.28397 7.43577 7.33719 7.41372 7.37643 7.37448C7.41567 7.33524 7.43772 7.28201 7.43772 7.22652V4.50613C7.43772 4.45063 7.41567 4.3974 7.37643 4.35816C7.33719 4.31892 7.28397 4.29688 7.22847 4.29688ZM10.3686 7.43577H7.6483C7.59281 7.43577 7.53958 7.45781 7.50034 7.49705C7.4611 7.5363 7.43905 7.58952 7.43905 7.64502V10.3654C7.43907 10.4209 7.46113 10.4741 7.50037 10.5133C7.53961 10.5525 7.59282 10.5746 7.6483 10.5746H10.3687C10.4242 10.5746 10.4774 10.5525 10.5167 10.5133C10.5559 10.4741 10.5779 10.4208 10.5779 10.3653V7.64495C10.5779 7.58946 10.5559 7.53626 10.5166 7.49703C10.4774 7.4578 10.4242 7.43577 10.3687 7.43577H10.3686ZM10.7859 4.29688H13.5062C13.5617 4.29688 13.6149 4.31892 13.6541 4.35816C13.6934 4.3974 13.7154 4.45063 13.7154 4.50613V7.22652C13.7154 7.28201 13.6934 7.33524 13.6541 7.37448C13.6149 7.41372 13.5617 7.43577 13.5062 7.43577H10.7858C10.7303 7.43577 10.6771 7.41372 10.6378 7.37448C10.5986 7.33524 10.5765 7.28201 10.5765 7.22652V4.50613C10.5765 4.47864 10.582 4.45142 10.5925 4.42603C10.603 4.40064 10.6184 4.37757 10.6379 4.35814C10.6573 4.33871 10.6804 4.32329 10.7058 4.31278C10.7312 4.30227 10.7584 4.29687 10.7859 4.29688ZM7.22847 10.5746H4.50808C4.48059 10.5746 4.45338 10.58 4.42799 10.5905C4.40259 10.601 4.37952 10.6165 4.36009 10.6359C4.34066 10.6553 4.32525 10.6784 4.31474 10.7038C4.30422 10.7292 4.29882 10.7564 4.29883 10.7839V13.5042C4.29883 13.5597 4.32087 13.6129 4.36012 13.6522C4.39936 13.6914 4.45258 13.7135 4.50808 13.7135H7.22847C7.28397 13.7135 7.33719 13.6914 7.37643 13.6522C7.41567 13.6129 7.43772 13.5597 7.43772 13.5042V10.7838C7.43772 10.7283 7.41567 10.6751 7.37643 10.6359C7.33719 10.5966 7.28397 10.5746 7.22847 10.5746ZM10.7859 10.5746H13.5062C13.5337 10.5746 13.5609 10.58 13.5863 10.5905C13.6117 10.601 13.6347 10.6165 13.6542 10.6359C13.6736 10.6553 13.689 10.6784 13.6995 10.7038C13.71 10.7292 13.7154 10.7564 13.7154 10.7839V13.5042C13.7154 13.5597 13.6934 13.6129 13.6541 13.6522C13.6149 13.6914 13.5617 13.7135 13.5062 13.7135H10.7858C10.7303 13.7135 10.6771 13.6914 10.6378 13.6522C10.5986 13.6129 10.5765 13.5597 10.5765 13.5042V10.7838C10.5765 10.7564 10.582 10.7291 10.5925 10.7037C10.603 10.6784 10.6184 10.6553 10.6379 10.6358C10.6573 10.6164 10.6804 10.601 10.7058 10.5905C10.7312 10.58 10.7584 10.5746 10.7859 10.5746Z" fill="white"/>
</g>
<defs>
<clipPath id="clip0_7438_1514">
<rect width="18" height="18" fill="white"/>
</clipPath>
</defs>
</svg>
