<svg width="20" height="20" viewBox="0 0 20 20" fill="none" xmlns="http://www.w3.org/2000/svg">
<rect x="1.1001" y="4.5" width="17.9" height="14" rx="1.4" fill="black"/>
<path d="M17.6418 13.4707H13.1792C11.7253 13.4707 10.5423 12.3644 10.5423 11.0046C10.5423 9.64485 11.7253 8.53852 13.1792 8.53852H17.6416C17.9777 8.53852 18.25 8.79316 18.25 9.10752C18.25 9.42189 17.9777 9.67653 17.6416 9.67653H13.1792C12.3965 9.67653 11.7594 10.2724 11.7594 11.0044C11.7594 11.7364 12.3965 12.3323 13.1792 12.3323H17.6416C17.9777 12.3323 18.25 12.5869 18.25 12.9013C18.2502 13.2161 17.9779 13.4707 17.6418 13.4707ZM16.4496 5.58675C16.201 5.58675 15.9676 5.44309 15.8776 5.21226L14.9134 2.73446C14.8884 2.6701 14.8371 2.63983 14.8086 2.62732C14.7801 2.61481 14.7221 2.59685 14.6534 2.62106L6.06703 5.54397C5.75118 5.65092 5.40188 5.49918 5.28688 5.20378C5.17189 4.90838 5.33478 4.58191 5.65064 4.47416L14.2371 1.55125C14.5937 1.43019 14.9794 1.44613 15.3227 1.59544C15.6664 1.74536 15.9272 2.0115 16.0569 2.34483L17.0211 4.82263C17.1361 5.11803 16.9732 5.4445 16.6573 5.55225C16.5908 5.57506 16.5205 5.58674 16.4496 5.58675Z" fill="black"/>
<path d="M10 11.5C10 10.1193 11.1193 9 12.5 9H17.5V14H12.5C11.1193 14 10 12.8807 10 11.5Z" fill="white"/>
<circle cx="12.3" cy="11.3" r="1.3" fill="black"/>
</svg>
