<svg width="20" height="20" viewBox="0 0 20 20" fill="none" xmlns="http://www.w3.org/2000/svg">
<path d="M18.0067 17.8694C17.6758 14.6375 15.4438 11.9687 12.4473 10.9995C13.9283 10.131 14.9229 8.52264 14.9229 6.68178C14.9229 3.9192 12.6834 1.67969 9.92084 1.67969C7.15826 1.67969 4.91877 3.91918 4.91877 6.68176C4.91877 8.53221 5.92365 10.1478 7.41742 11.0131C4.44211 11.9936 2.22949 14.6526 1.90016 17.8694C1.89351 17.9037 1.89016 17.9386 1.89014 17.9735C1.89014 18.2756 2.13498 18.5204 2.43701 18.5204C2.73904 18.5204 2.98389 18.2756 2.98389 17.9735H2.98896C3.05982 17.2856 3.23107 16.6172 3.50119 15.9785C3.85381 15.1448 4.35883 14.3959 5.00225 13.7525C5.64566 13.1091 6.39459 12.6041 7.22826 12.2514C8.0908 11.8866 9.0077 11.7016 9.95344 11.7016C10.8992 11.7016 11.8161 11.8866 12.6786 12.2514C13.5123 12.6041 14.2612 13.1091 14.9046 13.7525C15.548 14.3959 16.0531 15.1448 16.4057 15.9785C16.6758 16.6171 16.8471 17.2856 16.9179 17.9735H16.923C16.923 18.2756 17.1678 18.5204 17.4699 18.5204C17.7719 18.5204 18.0167 18.2756 18.0167 17.9735C18.0167 17.9386 18.0133 17.9037 18.0067 17.8694ZM6.01252 6.68176C6.01252 5.63781 6.41906 4.65633 7.15725 3.91814C7.89543 3.17996 8.87689 2.77342 9.92086 2.77342C10.9648 2.77342 11.9463 3.17996 12.6845 3.91814C13.4227 4.65633 13.8292 5.63779 13.8292 6.68176C13.8292 7.7257 13.4227 8.70719 12.6845 9.44537C11.9463 10.1836 10.9648 10.5901 9.92086 10.5901C8.87691 10.5901 7.89543 10.1836 7.15725 9.44537C6.41906 8.70719 6.01252 7.7257 6.01252 6.68176Z" fill="#9B9B9B"/>
</svg>
