<svg width="20" height="20" viewBox="0 0 20 20" fill="none" xmlns="http://www.w3.org/2000/svg">
<rect x="1.7801" y="5.18" width="16.54" height="12.64" rx="0.72" stroke="#9B9B9B" stroke-width="1.36"/>
<path d="M16.5389 5.42703C16.2903 5.42703 16.0569 5.28337 15.8776 5.21226L14.9134 2.73446C14.8884 2.6701 14.8371 2.63983 14.8086 2.62732C14.7801 2.61481 14.7221 2.59685 14.6534 2.62106L6 5.5C6 5.08152 5.40188 5.49918 5.28688 5.20378C5.17189 4.90838 5.33478 4.58191 5.65064 4.47416L14.2371 1.55125C14.5937 1.43019 14.9794 1.44613 15.3227 1.59544C15.6664 1.74536 15.9272 2.0115 16.0569 2.34483L17.0211 4.82263C17.1361 5.11803 17.0625 5.28478 16.7467 5.39253C16.6801 5.41534 16.6098 5.42702 16.5389 5.42703Z" fill="#9B9B9B"/>
<path d="M12.5 9.67969H18.0596C18.2033 9.67969 18.3203 9.79667 18.3203 9.94043V13.0596C18.3203 13.2033 18.2033 13.3203 18.0596 13.3203H12.5C11.4948 13.3203 10.6797 12.5052 10.6797 11.5C10.6797 10.4948 11.4948 9.67969 12.5 9.67969Z" stroke="#9B9B9B" stroke-width="1.36"/>
</svg>
