<svg width="29" height="21" viewBox="0 0 29 21" fill="none" xmlns="http://www.w3.org/2000/svg">
<path d="M19.8741 0.944853C24.345 1.05966 28.0565 4.27104 29.0001 8.54242H24.0725C23.2827 6.85741 21.5891 5.69214 19.6265 5.69204C16.9092 5.6921 14.7062 7.92522 14.7062 10.6799C14.7064 13.4345 16.9093 15.6677 19.6265 15.6678C21.5888 15.6677 23.2826 14.5027 24.0725 12.818H29.0001C28.0387 17.1675 24.2071 20.4177 19.6265 20.4179L19.3783 20.415C14.27 20.2837 10.1529 16.1095 10.0234 10.931L10.02 10.6799C10.02 5.30167 14.3212 0.941463 19.6265 0.941406L19.8741 0.944853Z" fill="#F79F1B"/>
<path d="M9.85414 1.17923C11.4877 1.22118 13.02 1.67647 14.3528 2.44588C13.9254 2.71526 13.5134 3.0218 13.122 3.36671L12.9373 3.5333C12.1139 4.297 11.4532 5.17355 10.9557 6.11772C10.5269 5.99397 10.0745 5.92645 9.60651 5.92643C6.88912 5.92643 4.68624 8.15958 4.68624 10.9143C4.68638 13.6689 6.88921 15.9022 9.60651 15.9022C12.2831 15.9021 14.4588 13.735 14.5234 11.0373L14.5291 11.0436C14.5272 11.017 14.5265 10.9903 14.5251 10.9637C14.5252 10.9473 14.5268 10.9308 14.5268 10.9143C14.5268 10.8195 14.5234 10.7253 14.5183 10.6317C14.533 9.31131 15.064 8.0003 16.101 7.03855C16.6337 6.54443 17.2455 6.19353 17.8905 5.98215C18.7303 7.42873 19.2125 9.11437 19.2125 10.9143L19.2096 11.1654C19.0782 16.4274 14.8289 20.6521 9.60651 20.6523L9.35832 20.6494C4.24989 20.5182 0.132798 16.344 0.00339993 11.1654L0 10.9143C6.66461e-07 5.53602 4.30113 1.17578 9.60651 1.17578L9.85414 1.17923Z" fill="url(#paint0_linear_7331_8639)"/>
<defs>
<linearGradient id="paint0_linear_7331_8639" x1="0" y1="10.914" x2="19.2125" y2="10.914" gradientUnits="userSpaceOnUse">
<stop stop-color="#EB001B"/>
<stop offset="0.890885" stop-color="#FE5F00"/>
</linearGradient>
</defs>
</svg>
