<svg width="48" height="48" viewBox="0 0 48 48" fill="none" xmlns="http://www.w3.org/2000/svg">
<rect width="48" height="48" rx="24" transform="matrix(-1 0 0 1 48 0)" fill="black"/>
<path d="M18.9538 37C19.2069 36.9998 19.4496 36.9032 19.6285 36.7315L31.7208 25.1356C31.8996 24.9639 32 24.7313 32 24.4887C32 24.2461 31.8996 24.0134 31.7208 23.8417L19.6285 12.2458C19.4475 12.0841 19.2081 11.996 18.9607 12.0001C18.7134 12.0043 18.4774 12.1004 18.3024 12.2681C18.1275 12.4359 18.0273 12.6622 18.023 12.8994C18.0186 13.1366 18.1105 13.3662 18.2792 13.5397L29.6969 24.4887L18.2792 35.4376C18.1458 35.5656 18.0551 35.7287 18.0183 35.9062C17.9815 36.0836 18.0004 36.2676 18.0726 36.4348C18.1448 36.6019 18.267 36.7448 18.4239 36.8455C18.5807 36.9461 18.7651 36.9998 18.9538 37Z" fill="white"/>
</svg>
