<svg width="24" height="24" viewBox="0 0 24 24" fill="none" xmlns="http://www.w3.org/2000/svg">
<path d="M15.1832 18.7135C15.1831 18.7135 15.183 18.7137 15.1831 18.7138L15.8131 19.6588C16.0026 19.9429 15.9216 20.3292 15.6218 20.4927C14.2047 21.2656 12.6129 21.672 10.992 21.6695C5.65396 21.6695 1.33203 17.3379 1.33203 12.0008C1.33203 6.66363 5.65396 2.33203 10.9911 2.33203C16.3379 2.33203 20.6695 6.66363 20.6695 12.0008C20.6695 12.1485 20.666 12.2944 20.6598 12.4403H18.8993C18.908 12.2944 18.9116 12.1484 18.9116 12.0008C18.9116 7.63315 15.3658 4.08997 10.9911 4.08997C6.62699 4.08997 3.08997 7.63228 3.08997 12.0008C3.08997 16.3693 6.62699 19.9116 10.9911 19.9116C12.53 19.9116 13.967 19.4722 15.1833 18.7138C15.1835 18.7137 15.1834 18.7135 15.1832 18.7135Z" fill="black"/>
<path d="M11.4396 7.60547H10.1211V12.8793L14.7357 15.6481L15.395 14.567L11.4396 12.2201V7.60547ZM17.1529 12.0003H22.4267L19.7898 15.5163L17.1529 12.0003Z" fill="black"/>
</svg>
