<svg width="364" height="73" viewBox="0 0 364 73" fill="none" xmlns="http://www.w3.org/2000/svg">
<path d="M330.895 29.9091L325.931 71.8457H315.359L321.611 19.9375H344.685C357.371 19.9375 363.714 25.8397 363.714 37.6441C363.714 39.073 363.622 40.6262 363.438 42.3037L359.853 71.8457H349.281L352.866 42.0241C352.989 40.7815 353.05 39.9117 353.05 39.4147C353.05 33.0776 349.863 29.9091 343.49 29.9091H330.895Z" fill="#0E0E0E"/>
<path d="M298.909 12.9643L300.288 1.78125H312.331L310.952 12.9643H298.909ZM303.138 71.8619H292.566L298.909 19.9538H309.481L303.138 71.8619Z" fill="#0E0E0E"/>
<path d="M254.202 71.8457C249.605 71.8457 245.928 70.541 243.17 67.9316C240.412 65.2601 239.033 61.812 239.033 57.5872C239.033 56.6553 239.064 55.9408 239.125 55.4438C239.677 51.5919 240.658 48.5476 242.067 46.311C243.477 44.0122 245.499 42.3658 248.134 41.3718C250.831 40.3156 254.355 39.7875 258.706 39.7875H274.15L274.242 39.0419C274.304 38.7313 274.334 38.2964 274.334 37.7373C274.334 35.3142 273.537 33.3572 271.944 31.8661C270.351 30.3751 267.869 29.6295 264.498 29.6295H262.108C256.653 29.6295 251.75 29.7848 247.399 30.0955L248.778 20.5898L251.444 20.4035C252.424 20.3413 254.14 20.2481 256.592 20.1239C259.105 19.9996 261.28 19.9375 263.119 19.9375H265.601C271.913 19.9375 276.694 21.4596 279.942 24.5039C283.19 27.5482 284.814 31.6176 284.814 36.7121C284.814 37.2713 284.753 38.2343 284.63 39.6011L280.861 71.8457H254.202ZM249.605 56.5621C249.605 58.3638 250.096 59.7617 251.076 60.7558C252.118 61.6877 253.589 62.1537 255.489 62.1537H271.484L273.047 49.1067L257.787 49.0135C255.458 48.9514 253.589 49.4174 252.179 50.4114C250.831 51.3433 250.004 53.0208 249.697 55.4438L249.605 56.5621Z" fill="#0E0E0E"/>
<path d="M192.579 0H203.151L200.761 19.9432H213.263C225.949 19.9432 232.292 25.8454 232.292 37.6497C232.292 39.0787 232.2 40.6319 232.017 42.3094L228.431 71.8513H217.86L221.445 42.0298C221.567 40.7872 221.629 39.9174 221.629 39.4204C221.629 33.0833 218.442 29.9148 212.068 29.9148H199.566L194.51 71.8513H183.938L192.579 0Z" fill="#0E0E0E"/>
<path d="M163.91 1.85938C166.484 1.85938 170.161 1.9215 174.942 2.04576L180.641 2.13895L179.262 12.4833L173.93 12.2969C167.802 12.1727 163.971 12.1105 162.439 12.1105H158.394C152.817 12.1105 148.65 13.5395 145.892 16.3974C143.196 19.2553 141.418 23.8839 140.56 30.2831L138.906 43.796C138.66 46.2811 138.538 48.0207 138.538 49.0147C138.538 53.5501 139.58 56.8429 141.663 58.8931C143.808 60.9434 147.302 61.9685 152.143 61.9685H156.556C159.804 61.9685 165.075 61.751 172.368 61.3161L174.666 61.2229L173.93 71.4741C167.924 71.9711 161.826 72.2197 155.637 72.2197H151.224C143.134 72.1575 137.19 70.3869 133.39 66.9077C129.59 63.4285 127.69 57.9612 127.69 50.5058C127.69 48.5798 127.843 46.1568 128.15 43.2368L129.529 30.8422C130.816 20.7153 133.849 13.3842 138.63 8.8488C143.471 4.25131 150.55 1.9215 159.865 1.85938H163.91Z" fill="#0E0E0E"/>
<path d="M83.8915 29.9091L78.9273 71.8457H68.3555L74.6066 19.9375H97.6808C110.367 19.9375 116.71 25.8397 116.71 37.6441C116.71 39.073 116.618 40.6262 116.434 42.3037L112.849 71.8457H102.277L105.862 42.0241C105.985 40.7815 106.046 39.9117 106.046 39.4147C106.046 33.0776 102.859 29.9091 96.4857 29.9091H83.8915Z" fill="#0E0E0E"/>
<path d="M38.9779 1.48047C47.0676 1.5426 53.0124 3.34432 56.8121 6.88563C60.6118 10.3648 62.5117 15.8632 62.5117 23.3807C62.5117 25.3067 62.3585 27.6675 62.0521 30.4633L60.6731 43.2307C59.3248 53.3576 56.2605 60.7198 51.4802 65.3173C46.6999 69.8526 39.652 72.1514 30.3366 72.2135H23.5338C15.4441 72.1514 9.49933 70.3807 5.6996 66.9015C1.89987 63.4224 0 57.9551 0 50.4997C0 48.5737 0.153215 46.1507 0.459645 43.2307L1.83858 30.4633C3.12559 20.3364 6.15924 13.0053 10.9396 8.4699C15.7811 3.87241 22.8597 1.5426 32.1751 1.48047H38.9779ZM11.2153 43.7898C10.9702 46.275 10.8476 48.0145 10.8476 49.0086C10.8476 53.544 11.8895 56.8368 13.9732 58.887C16.1182 60.8751 19.6115 61.9002 24.4531 61.9623H31.8074C37.3845 61.9002 41.5213 60.4713 44.2178 57.6755C46.9757 54.8176 48.7836 50.189 49.6417 43.7898L51.2964 29.9042C51.5415 27.419 51.6641 25.6794 51.6641 24.6854C51.6641 20.15 50.5916 16.8883 48.4466 14.9002C46.3629 12.8499 42.9002 11.7938 38.0586 11.7316H30.7043C25.1273 11.7938 20.9598 13.2538 18.2019 16.1117C15.5054 18.9074 13.7281 23.5049 12.8701 29.9042L11.2153 43.7898Z" fill="#0E0E0E"/>
</svg>
