<svg width="32" height="32" viewBox="0 0 32 32" fill="none" xmlns="http://www.w3.org/2000/svg">
<rect width="32" height="32" rx="16" fill="#F4F4F4"/>
<g clip-path="url(#clip0_7240_15040)">
<path d="M18.9654 9.09124C18.9771 9.09124 18.9891 9.09051 19.0019 9.08978V9.09453H22.1255L16.1249 15.1035L16.1267 15.1046C16.0395 15.2092 15.9945 15.3427 16.0005 15.4788C16.0066 15.6149 16.0634 15.7438 16.1596 15.8402C16.2558 15.9366 16.3845 15.9934 16.5205 15.9995C16.6564 16.0055 16.7897 15.9605 16.8941 15.8731L16.8949 15.8738L16.9102 15.8588C16.9226 15.8471 16.9357 15.8347 16.9474 15.8216L22.9075 9.85388V12.9917H22.9105C22.9117 13.0657 22.928 13.1387 22.9584 13.2062C22.9887 13.2737 23.0324 13.3343 23.0869 13.3843C23.1414 13.4343 23.2054 13.4727 23.2752 13.4972C23.3449 13.5216 23.4189 13.5316 23.4926 13.5265C23.5664 13.5215 23.6383 13.5014 23.704 13.4676C23.7698 13.4338 23.828 13.3869 23.8751 13.3299C23.9222 13.2729 23.9572 13.2068 23.978 13.1358C23.9988 13.0648 24.0049 12.9903 23.9961 12.9168V8.00412H19.0318C18.9552 7.99464 18.8775 8.00157 18.8038 8.02446C18.7301 8.04735 18.662 8.08567 18.6042 8.13688C18.5465 8.18809 18.5002 8.25102 18.4685 8.3215C18.4369 8.39198 18.4205 8.46839 18.4206 8.54567C18.4206 8.84714 18.664 9.09124 18.9654 9.09124Z" fill="black"/>
<path d="M24 16.0002C24 15.8563 23.9428 15.7183 23.8411 15.6165C23.7393 15.5148 23.6013 15.4576 23.4574 15.4576C23.3134 15.4576 23.1754 15.5148 23.0737 15.6165C22.9719 15.7183 22.9147 15.8563 22.9147 16.0002L22.9151 16.0122C22.9133 17.8558 22.1929 19.5874 20.8892 20.8917C20.2483 21.5353 19.4863 22.0455 18.647 22.3928C17.8077 22.7402 16.9079 22.9177 15.9996 22.9152C14.1537 22.9152 12.416 22.1971 11.1105 20.8895C9.80311 19.5838 9.0842 17.8485 9.0842 16.0009C9.0842 14.1533 9.80493 12.418 11.1126 11.1105C11.7527 10.4661 12.5144 9.95517 13.3535 9.60738C14.1926 9.2596 15.0924 9.08184 16.0007 9.08442L16.0156 9.08479C16.1571 9.08191 16.2919 9.02386 16.3912 8.92303C16.4905 8.8222 16.5465 8.68656 16.5472 8.54505C16.5479 8.40354 16.4933 8.26735 16.395 8.16552C16.2967 8.0637 16.1625 8.0043 16.0211 8H16.0018C14.9209 8 13.8734 8.21296 12.8874 8.62943C11.9366 9.03093 11.0729 9.6131 10.3439 10.3436C9.6 11.086 9.00999 11.9679 8.60776 12.9388C8.20553 13.9096 7.999 14.9504 8.00001 16.0013C7.99818 17.0517 8.20414 18.0922 8.60603 19.0628C9.00792 20.0334 9.59781 20.9149 10.3417 21.6567C11.0708 22.387 11.9346 22.969 12.8852 23.3705C13.8704 23.7883 14.9299 24.0024 16 24C17.0806 24 18.1269 23.7896 19.1152 23.3705C20.0652 22.9701 20.9283 22.3888 21.6564 21.6589C22.4005 20.9174 22.9907 20.0362 23.3929 19.0659C23.7951 18.0955 24.0014 17.0553 24 16.0049V16.0002Z" fill="black"/>
</g>
<defs>
<clipPath id="clip0_7240_15040">
<rect width="16" height="16" fill="white" transform="translate(8 8)"/>
</clipPath>
</defs>
</svg>
