<svg width="48" height="48" viewBox="0 0 48 48" fill="none" xmlns="http://www.w3.org/2000/svg">
<rect x="0.5" y="0.5" width="47" height="47" rx="23.5" stroke="black"/>
<path d="M29.0462 37C28.7931 36.9998 28.5504 36.9032 28.3715 36.7315L16.2792 25.1356C16.1004 24.9639 16 24.7313 16 24.4887C16 24.2461 16.1004 24.0134 16.2792 23.8417L28.3715 12.2458C28.5525 12.0841 28.7919 11.996 29.0393 12.0001C29.2866 12.0043 29.5226 12.1004 29.6976 12.2681C29.8725 12.4359 29.9727 12.6622 29.977 12.8994C29.9814 13.1366 29.8895 13.3662 29.7208 13.5397L18.3031 24.4887L29.7208 35.4376C29.8542 35.5656 29.9449 35.7287 29.9817 35.9062C30.0185 36.0836 29.9996 36.2676 29.9274 36.4348C29.8552 36.6019 29.733 36.7448 29.5761 36.8455C29.4193 36.9461 29.2349 36.9998 29.0462 37Z" fill="black"/>
</svg>
