<svg width="25" height="25" viewBox="0 0 25 25" fill="none" xmlns="http://www.w3.org/2000/svg">
<g clip-path="url(#clip0_7223_11276)">
<path d="M0 12.5C0 15.8152 1.31696 18.9946 3.66117 21.3388C6.00537 23.683 9.18479 25 12.5 25C15.8152 25 18.9946 23.683 21.3388 21.3388C23.683 18.9946 25 15.8152 25 12.5C25 9.18479 23.683 6.00537 21.3388 3.66117C18.9946 1.31696 15.8152 0 12.5 0C9.18479 0 6.00537 1.31696 3.66117 3.66117C1.31696 6.00537 0 9.18479 0 12.5Z" fill="#1BA27A"/>
<path d="M18.3609 6.30078H6.52344V9.16328H11.0234V13.3633H13.8734V9.16328H18.3609V6.30078Z" fill="white"/>
<path d="M20.0258 12.7109C20.0258 11.7734 16.6508 11.0234 12.4758 11.0234C8.30078 11.0234 4.92578 11.7859 4.92578 12.7109C4.92578 13.5359 7.55078 14.2234 11.0258 14.3734V20.3984H13.8758V14.3734C17.3758 14.2234 20.0258 13.5359 20.0258 12.7109ZM12.4758 13.8109C8.76328 13.8109 5.75078 13.2234 5.75078 12.4984C5.75078 11.7734 8.76328 11.1859 12.4758 11.1859C16.1883 11.1859 19.2008 11.7734 19.2008 12.4984C19.2008 13.2234 16.1883 13.8109 12.4758 13.8109Z" fill="white"/>
</g>
<defs>
<clipPath id="clip0_7223_11276">
<rect width="25" height="25" fill="white"/>
</clipPath>
</defs>
</svg>