<svg width="25" height="25" viewBox="0 0 25 25" fill="none" xmlns="http://www.w3.org/2000/svg">
<path d="M12.5 0C19.4034 0 25 5.59656 25 12.5C25 19.4034 19.4034 25 12.5 25C5.59656 25 0 19.4034 0 12.5C0 5.59656 5.59656 0 12.5 0ZM17.85 8.71156C17.7629 8.62455 17.6595 8.55555 17.5457 8.50851C17.4319 8.46147 17.31 8.4373 17.1868 8.43739C17.0637 8.43747 16.9418 8.46181 16.8281 8.50902C16.7144 8.55622 16.6111 8.62537 16.5241 8.7125L10.945 14.3L8.47406 11.8394C8.29743 11.6662 8.05952 11.5699 7.81216 11.5713C7.56481 11.5728 7.32806 11.672 7.1535 11.8472C6.97895 12.0225 6.88073 12.2596 6.88024 12.507C6.87976 12.7544 6.97706 12.9919 7.15094 13.1678L10.2853 16.2894C10.4613 16.4647 10.6998 16.563 10.9482 16.5626C11.1966 16.5623 11.4348 16.4633 11.6103 16.2875L17.8509 10.0375C17.9379 9.95038 18.0069 9.84698 18.054 9.73319C18.101 9.6194 18.1252 9.49746 18.1251 9.37434C18.125 9.25121 18.1007 9.1293 18.0535 9.01558C18.0063 8.90187 17.9371 8.79856 17.85 8.71156Z" fill="black"/>
</svg>
