<svg width="34" height="34" viewBox="0 0 34 34" fill="none" xmlns="http://www.w3.org/2000/svg">
<circle cx="17.3356" cy="17.4216" r="14.7985" fill="white"/>
<path d="M33.8252 16.9991C33.826 17.5768 33.7978 18.1541 33.7406 18.729C33.6311 19.8494 33.4063 20.9555 33.0698 22.0298C32.5805 23.6019 31.8638 25.0938 30.9422 26.4582C29.7255 28.2588 28.1748 29.8095 26.3742 31.0262C25.925 31.3299 25.4555 31.6184 24.9793 31.8721C24.503 32.1259 24.0022 32.3729 23.4998 32.5853C22.4759 33.0166 21.4123 33.3466 20.3241 33.5708C19.7687 33.6835 19.208 33.7682 18.6441 33.8245C17.4938 33.9413 16.3346 33.9413 15.1843 33.8245C14.6204 33.7682 14.0597 33.6835 13.5043 33.5708C12.9595 33.4591 12.4138 33.317 11.8826 33.1537C11.3514 32.9905 10.8345 32.7993 10.3286 32.5853C9.82277 32.3712 9.32874 32.1335 8.8491 31.8721C8.36946 31.6107 7.90335 31.3282 7.45416 31.0262C5.65356 29.8095 4.10291 28.2588 2.88614 26.4582C2.58245 26.0082 2.29399 25.5387 2.04021 25.0633C1.78643 24.5879 1.54027 24.0862 1.32794 23.5846C0.896163 22.5609 0.566073 21.4973 0.34243 20.409C0.228875 19.8538 0.144168 19.293 0.0886514 18.729C-0.0869331 17.013 -0.00136816 15.2803 0.34243 13.59C0.454093 13.0444 0.596209 12.4996 0.759473 11.9684C0.922738 11.4371 1.11392 10.9211 1.32794 10.4136C1.54196 9.90601 1.77966 9.41368 2.04021 8.93488C2.30076 8.45609 2.58414 7.98999 2.88614 7.5408C4.10261 5.73997 5.65332 4.18927 7.45416 2.97281C7.90335 2.66912 8.37284 2.38066 8.8491 2.12688C9.32536 1.8731 9.82615 1.62609 10.3286 1.41461C10.8311 1.20313 11.3581 1.00857 11.8826 0.845306C12.4071 0.682041 12.9586 0.539928 13.5043 0.428264C14.0596 0.315509 14.6204 0.230808 15.1843 0.174487C16.3346 0.0577195 17.4938 0.0577194 18.6441 0.174487C19.208 0.230807 19.7687 0.315509 20.3241 0.428264C20.8689 0.539928 21.4145 0.68204 21.9458 0.845305C22.477 1.00857 22.9939 1.19975 23.4998 1.41461C24.5061 1.83974 25.4688 2.36158 26.3742 2.97281C28.1751 4.18927 29.7258 5.73997 30.9422 7.5408C31.2459 7.98999 31.5344 8.45947 31.7882 8.93488C32.042 9.41029 32.2881 9.91193 32.5004 10.4136C32.7128 10.9152 32.9057 11.4439 33.0698 11.9684C33.2339 12.4928 33.3751 13.0444 33.4868 13.59C33.5985 14.1356 33.6856 14.7066 33.7406 15.2692C33.7978 15.844 33.826 16.4214 33.8252 16.9991ZM18.5824 25.9354C18.5777 26.1324 18.6124 26.3284 18.6845 26.5117C18.7566 26.6951 18.8647 26.8622 19.0024 27.0032C19.14 27.1442 19.3045 27.2562 19.4861 27.3327C19.6677 27.4092 19.8627 27.4486 20.0598 27.4486C20.2568 27.4486 20.4519 27.4092 20.6335 27.3327C20.8151 27.2562 20.9795 27.1442 21.1172 27.0032C21.2549 26.8622 21.3629 26.6951 21.4351 26.5117C21.5072 26.3284 21.5419 26.1324 21.5372 25.9354L21.5372 12.879C21.5372 12.3903 22.1281 12.1456 22.4736 12.4912C22.6107 12.6281 22.7733 12.7368 22.9524 12.8109C23.1314 12.885 23.3232 12.9231 23.517 12.9231C23.7107 12.923 23.9026 12.8848 24.0815 12.8106C24.2605 12.7365 24.4232 12.6278 24.5601 12.4907C24.6971 12.3537 24.8057 12.191 24.8799 12.012C24.954 11.833 24.9921 11.6412 24.992 11.4474C24.992 11.2537 24.9538 11.0618 24.8796 10.8828C24.8054 10.7038 24.6967 10.5412 24.5597 10.4043L21.1041 6.94865C21.0956 6.93935 21.0863 6.93174 21.0779 6.92412L21.0508 6.89959C21.0469 6.89558 21.0426 6.8919 21.0381 6.88859L21.0254 6.87759C21.0207 6.87246 21.0156 6.86765 21.0102 6.86321L20.9933 6.84883C20.9834 6.83938 20.9726 6.83088 20.9611 6.82345L20.9501 6.815C20.942 6.80986 20.9352 6.80284 20.9274 6.79719L20.9205 6.79216L20.9002 6.77608L20.8892 6.76932L20.8791 6.76255C20.8722 6.75889 20.8657 6.75464 20.8596 6.74986C20.8537 6.7448 20.8472 6.74053 20.8402 6.73717C20.8389 6.73665 20.8376 6.73608 20.8364 6.73548C20.8236 6.72916 20.812 6.72016 20.8004 6.71179C20.7942 6.70764 20.7877 6.70396 20.7809 6.7008C20.7767 6.69878 20.7726 6.69636 20.7689 6.69357C20.7624 6.6888 20.7561 6.68385 20.7488 6.68049C20.7397 6.67536 20.7301 6.67138 20.72 6.66865C20.7056 6.66364 20.6943 6.65213 20.68 6.64682C20.6773 6.64582 20.6746 6.64492 20.6718 6.64412C20.6685 6.64349 20.6651 6.64349 20.662 6.64215C20.6582 6.64044 20.6544 6.63856 20.6507 6.63651C20.6455 6.63362 20.6401 6.63107 20.6346 6.62889L20.6016 6.6179C20.5899 6.61342 20.578 6.60834 20.5661 6.60436C20.5655 6.60419 20.565 6.60405 20.5645 6.60393C20.5553 6.60192 20.547 6.59667 20.5382 6.59336C20.5292 6.59054 20.5204 6.58715 20.5119 6.58321L20.5103 6.5826C20.5024 6.57964 20.4941 6.57722 20.4857 6.57814C20.4773 6.57902 20.4689 6.57701 20.4608 6.57477L20.4299 6.56629C20.4162 6.56322 20.4016 6.56466 20.388 6.5615L20.3867 6.56122L20.3747 6.55843C20.3681 6.55692 20.3613 6.55697 20.3546 6.55614C20.3446 6.55511 20.3344 6.55453 20.3246 6.5525C20.3138 6.55029 20.3029 6.54896 20.292 6.54853C20.2875 6.54898 20.283 6.54898 20.2785 6.54853C20.2689 6.54764 20.2593 6.54763 20.2497 6.54718C20.2401 6.54672 20.2305 6.54717 20.2209 6.54853C20.215 6.54892 20.2091 6.54892 20.2032 6.54853C20.1973 6.54812 20.1913 6.54812 20.1854 6.54853C20.1806 6.54891 20.1758 6.54891 20.171 6.54853C20.1643 6.54802 20.1575 6.54802 20.1507 6.54853L20.1152 6.54853L20.0797 6.54853C20.0609 6.5472 20.0421 6.54691 20.0233 6.54767C20.013 6.54808 20.0026 6.54741 19.9922 6.54721C19.9789 6.54696 19.9655 6.54713 19.9522 6.54736C19.9518 6.54736 19.9515 6.54737 19.9511 6.54738C19.9415 6.54762 19.9319 6.54805 19.9223 6.54823C19.9197 6.54828 19.9172 6.54838 19.9147 6.54853C19.9077 6.54892 19.9006 6.54892 19.8936 6.54853C19.8888 6.54808 19.884 6.54808 19.8792 6.54853C19.8744 6.54903 19.8696 6.54903 19.8648 6.54853L19.842 6.54853C19.8375 6.54801 19.8329 6.5478 19.8284 6.54787C19.8217 6.54798 19.8148 6.54768 19.8081 6.54853C19.7982 6.55047 19.7878 6.5497 19.778 6.55197L19.7709 6.55361L19.7489 6.55868C19.7352 6.56175 19.7207 6.56062 19.7072 6.56433L19.6846 6.57053C19.6804 6.57107 19.6761 6.57107 19.6719 6.57053C19.6677 6.57006 19.6635 6.57006 19.6592 6.57053C19.65 6.57262 19.6411 6.57564 19.6325 6.57952C19.6242 6.58327 19.6161 6.58745 19.6076 6.59083C19.6024 6.5925 19.5974 6.59447 19.5924 6.59675C19.5807 6.60122 19.5688 6.60631 19.5569 6.61028L19.5247 6.62128C19.5192 6.6234 19.5138 6.62594 19.5087 6.62889C19.5035 6.63177 19.4981 6.63431 19.4926 6.63651L19.4843 6.63965C19.478 6.64205 19.4712 6.64328 19.4652 6.64624C19.4631 6.64727 19.461 6.64838 19.4591 6.64922C19.4578 6.64982 19.4563 6.65004 19.4548 6.65004C19.4529 6.65004 19.4511 6.6504 19.4494 6.65121C19.4449 6.65334 19.4407 6.65597 19.4368 6.65904C19.434 6.66127 19.4305 6.66241 19.4269 6.66254C19.425 6.6626 19.4233 6.66324 19.4217 6.66416C19.4147 6.66815 19.4075 6.67143 19.3999 6.67397C19.3969 6.675 19.3938 6.67611 19.3911 6.67773C19.3792 6.6846 19.3673 6.6934 19.3559 6.70091C19.3555 6.70117 19.3551 6.70142 19.3547 6.70164L19.3361 6.71179C19.3349 6.7124 19.3337 6.71303 19.3325 6.71369C19.3197 6.72081 19.3079 6.72993 19.2963 6.73886C19.2903 6.74374 19.2838 6.74798 19.2769 6.75155C19.2729 6.75369 19.2693 6.75624 19.2659 6.75917C19.2625 6.76183 19.2588 6.7641 19.2549 6.76593C19.2453 6.77127 19.2362 6.77751 19.2278 6.78455C19.2275 6.78484 19.2272 6.78513 19.2269 6.78542C19.2201 6.79163 19.2132 6.79772 19.2058 6.80315L19.1948 6.81246L19.1787 6.82515L19.1618 6.83868C19.1567 6.84246 19.1518 6.84671 19.1474 6.85137C19.1469 6.85198 19.1464 6.85257 19.1458 6.85316C19.1383 6.86137 19.1297 6.86894 19.1204 6.87506L19.1077 6.88521C19.0992 6.89421 19.0901 6.90268 19.0806 6.91059L19.0544 6.93427L19.029 6.96134L19.0036 6.98841L18.9935 7.0011L18.9825 7.01463C18.9787 7.01955 18.9745 7.02409 18.9698 7.02817L18.9571 7.04255C18.9513 7.04871 18.9459 7.0552 18.9408 7.06197C18.9351 7.06967 18.9282 7.07662 18.9233 7.08485L18.9148 7.09584L18.9004 7.11446L18.8852 7.13476L18.8784 7.14575L18.8717 7.1559C18.8679 7.16268 18.8637 7.16919 18.859 7.17536C18.8543 7.18151 18.85 7.18801 18.8463 7.19482C18.8458 7.19582 18.8453 7.19681 18.8448 7.19779C18.8379 7.21093 18.8282 7.2225 18.8209 7.23542L18.8099 7.25488C18.808 7.25901 18.8058 7.26296 18.8032 7.26668C18.7986 7.27326 18.7938 7.27974 18.7905 7.28702C18.7853 7.29526 18.7813 7.30414 18.7785 7.31342C18.778 7.31498 18.7778 7.31661 18.7778 7.31825C18.7778 7.32053 18.7774 7.32281 18.7764 7.32488C18.7747 7.32866 18.7726 7.33227 18.7702 7.33568C18.7675 7.33947 18.7647 7.34312 18.7625 7.34722C18.759 7.354 18.7561 7.36112 18.7539 7.36847C18.7534 7.36999 18.7532 7.37158 18.7532 7.37316C18.7532 7.37494 18.753 7.37671 18.7524 7.37839C18.7514 7.38131 18.7502 7.38416 18.7488 7.38692C18.7469 7.3909 18.7448 7.39484 18.7432 7.39896L18.7389 7.40968L18.7279 7.44183L18.7211 7.45959L18.7143 7.4782L18.7093 7.49174L18.7042 7.50612C18.7018 7.51511 18.6987 7.52388 18.6949 7.53234L18.6931 7.53709C18.6909 7.5429 18.6898 7.54905 18.6898 7.55526C18.6898 7.55802 18.6901 7.56078 18.6902 7.56354C18.6904 7.5664 18.6903 7.56927 18.6898 7.5721L18.6822 7.60193C18.6799 7.61077 18.6788 7.61986 18.6788 7.62899C18.6788 7.63728 18.6779 7.64555 18.676 7.65363L18.6737 7.66346L18.6709 7.67648C18.6694 7.68357 18.6687 7.6908 18.6687 7.69805C18.6687 7.70765 18.6671 7.71717 18.6652 7.72657C18.6629 7.73753 18.6615 7.74868 18.661 7.75989L18.661 7.7895C18.6592 7.80382 18.6592 7.81832 18.661 7.83264L18.661 7.97307L18.5824 25.9354ZM8.78434 22.5623C8.80341 22.5599 8.82028 22.5747 8.82071 22.594C8.82483 22.7753 8.86257 22.9543 8.93213 23.122C9.00633 23.3009 9.11525 23.4633 9.25261 23.5998L12.7082 27.0563L12.7361 27.0817C12.7451 27.0896 12.7538 27.0978 12.7624 27.1062L12.7742 27.1163C12.7832 27.123 12.7921 27.13 12.7997 27.1382C12.8002 27.1388 12.8008 27.1394 12.8013 27.14C12.8096 27.1498 12.8201 27.1574 12.8302 27.1654C12.8358 27.1699 12.8417 27.1742 12.8478 27.1781L12.8588 27.1874L12.869 27.1967L12.8884 27.2111L12.8984 27.2186C12.9052 27.2237 12.9129 27.2278 12.9197 27.2331C12.9231 27.236 12.9268 27.2386 12.9307 27.2407C12.9375 27.2445 12.944 27.2487 12.9502 27.2534C12.956 27.2581 12.9623 27.2623 12.9688 27.2661C12.97 27.2666 12.9713 27.2671 12.9725 27.2677C12.9859 27.2742 12.9973 27.2842 13.0102 27.2915C13.0165 27.2955 13.023 27.2991 13.0297 27.3025C13.0345 27.3045 13.039 27.3071 13.0432 27.3102C13.0492 27.3147 13.0551 27.3194 13.0618 27.3228C13.071 27.3279 13.0806 27.3321 13.0906 27.3354C13.0936 27.3365 13.0965 27.3378 13.0992 27.3393C13.107 27.3437 13.1138 27.3498 13.122 27.3536C13.1267 27.3558 13.1316 27.3577 13.1365 27.3593C13.138 27.3598 13.1396 27.36 13.1412 27.36C13.143 27.36 13.1448 27.3603 13.1464 27.3609C13.151 27.3626 13.1556 27.3645 13.16 27.3667C13.165 27.3698 13.1704 27.3724 13.176 27.3744L13.2082 27.3854C13.2143 27.3873 13.2203 27.3899 13.2259 27.393L13.2437 27.3997L13.2581 27.4057C13.2677 27.4096 13.2776 27.4126 13.2873 27.4161C13.2912 27.4176 13.295 27.4191 13.2987 27.4209L13.3003 27.4215C13.3082 27.4245 13.3165 27.4268 13.3249 27.426C13.3291 27.4251 13.3334 27.4251 13.3376 27.426L13.3807 27.437C13.3856 27.438 13.3906 27.4384 13.3956 27.4379C13.3998 27.4376 13.404 27.4369 13.4083 27.437C13.4088 27.4371 13.4094 27.4371 13.4099 27.4371C13.4219 27.4379 13.4338 27.4429 13.4459 27.4429C13.4493 27.4425 13.4527 27.4425 13.456 27.4429C13.4661 27.444 13.4762 27.4443 13.4862 27.4461C13.4921 27.4471 13.498 27.448 13.504 27.4486C13.5132 27.4496 13.5224 27.4488 13.5316 27.4496C13.5318 27.4496 13.532 27.4496 13.5322 27.4496C13.5416 27.4515 13.5514 27.4504 13.561 27.4507C13.5706 27.4511 13.5802 27.4507 13.5897 27.4496C13.5953 27.4493 13.601 27.4493 13.6066 27.4496C13.6125 27.45 13.6185 27.45 13.6244 27.4496C13.6294 27.4492 13.6345 27.4492 13.6396 27.4496C13.6463 27.4505 13.6532 27.4505 13.6599 27.4496L13.7301 27.4496C13.7444 27.4507 13.7588 27.4511 13.7731 27.4509C13.7923 27.4506 13.8119 27.4529 13.8308 27.4496C13.8342 27.4492 13.8376 27.4492 13.8409 27.4496C13.8457 27.4504 13.8505 27.4509 13.8554 27.4511C13.8694 27.4515 13.8836 27.4505 13.8976 27.4496C13.9047 27.4492 13.9117 27.4492 13.9188 27.4496C13.9235 27.4501 13.9284 27.4501 13.9331 27.4496C13.9427 27.4487 13.9523 27.4491 13.9619 27.4492C13.965 27.4493 13.9681 27.4494 13.9712 27.4496C13.9754 27.4499 13.9797 27.4501 13.9839 27.45C13.9906 27.45 13.9975 27.4505 14.0042 27.4496C14.0055 27.4495 14.0069 27.4494 14.0082 27.4493C14.0156 27.449 14.0231 27.4486 14.0303 27.4467C14.0354 27.4453 14.0407 27.4446 14.0461 27.4446L14.0668 27.4446C14.0704 27.445 14.0741 27.445 14.0778 27.4446C14.0845 27.4438 14.0913 27.4437 14.0978 27.4421L14.1311 27.4336C14.1353 27.433 14.1396 27.433 14.1438 27.4336C14.148 27.4344 14.1523 27.4344 14.1565 27.4336C14.1654 27.4319 14.1741 27.4293 14.1825 27.4259C14.1919 27.422 14.201 27.4175 14.2106 27.4141L14.2161 27.4122C14.222 27.4101 14.2275 27.4093 14.233 27.4063C14.2388 27.4032 14.2463 27.4014 14.2521 27.3982C14.2551 27.3965 14.258 27.3946 14.2605 27.3938L14.2927 27.3828C14.2984 27.3809 14.3041 27.3787 14.3096 27.376C14.3148 27.3734 14.3201 27.3712 14.3256 27.3693L14.3426 27.3625C14.3469 27.3604 14.3513 27.3585 14.3557 27.3568C14.3577 27.3561 14.3597 27.3557 14.3617 27.3557C14.3636 27.3557 14.3655 27.3555 14.3672 27.3548C14.3701 27.3537 14.3729 27.3523 14.3755 27.3506C14.3816 27.3468 14.3872 27.3422 14.3936 27.3388L14.395 27.338C14.4012 27.3342 14.4078 27.331 14.4145 27.3284C14.4206 27.3261 14.4268 27.3241 14.4323 27.3207C14.4413 27.3151 14.4496 27.3083 14.4588 27.3031L14.4644 27.2999L14.483 27.2898C14.4841 27.2893 14.4852 27.2887 14.4862 27.2882C14.4999 27.281 14.5122 27.2712 14.5244 27.2618C14.527 27.2597 14.5296 27.2577 14.5324 27.2559C14.5397 27.2509 14.5476 27.2466 14.5549 27.2415C14.5584 27.2387 14.562 27.2362 14.5659 27.2339C14.5752 27.2288 14.5839 27.2229 14.5921 27.2162L14.6048 27.206L14.6158 27.1967C14.6233 27.1915 14.63 27.1851 14.6372 27.1794C14.6392 27.1779 14.641 27.1763 14.6429 27.1747C14.6479 27.17 14.6532 27.1658 14.6589 27.162C14.6642 27.1584 14.669 27.1541 14.6733 27.1493L14.6877 27.1367L14.7004 27.1257L14.7131 27.1147C14.7215 27.1054 14.7308 27.0977 14.7393 27.0901L14.7655 27.0656L14.7909 27.0385C14.7983 27.0296 14.8062 27.0211 14.8146 27.0131L14.8256 27.0005L14.8366 26.9869C14.8404 26.9817 14.8446 26.9769 14.8493 26.9725C14.8586 26.9632 14.8667 26.9527 14.8749 26.9423C14.879 26.937 14.8829 26.9316 14.8865 26.926L14.8958 26.915C14.901 26.907 14.908 26.9001 14.9137 26.8924L14.9195 26.8846L14.9339 26.8651L14.9406 26.8541L14.9483 26.8431C14.9518 26.8362 14.9561 26.8297 14.9609 26.8237L14.9669 26.8149C14.9714 26.8084 14.9748 26.8012 14.9791 26.7944C14.9842 26.7863 14.9904 26.7788 14.9952 26.7704L14.999 26.7636L15.01 26.7441C15.0119 26.74 15.0141 26.7361 15.0167 26.7323C15.0213 26.7258 15.0261 26.7193 15.0295 26.712C15.0347 26.7037 15.0387 26.6947 15.0415 26.6853C15.042 26.6839 15.0422 26.6825 15.0422 26.6811C15.0422 26.6792 15.0425 26.6772 15.0433 26.6755C15.0448 26.6721 15.0466 26.6689 15.0487 26.666C15.0519 26.6614 15.0555 26.6572 15.058 26.6523C15.0613 26.646 15.0639 26.6393 15.0659 26.6325C15.0665 26.6308 15.0667 26.629 15.0667 26.6272C15.0667 26.6246 15.0672 26.6219 15.0683 26.6194L15.0735 26.6071L15.0802 26.591L15.0912 26.5589L15.0988 26.5411L15.1056 26.5234L15.1107 26.509L15.1157 26.4937L15.1251 26.4684L15.1259 26.466C15.1287 26.458 15.1315 26.4497 15.1301 26.4413C15.1293 26.4371 15.1293 26.4328 15.1301 26.4286L15.1379 26.3974C15.1401 26.3889 15.1411 26.3802 15.1411 26.3714C15.1411 26.3633 15.142 26.3553 15.1439 26.3474L15.1462 26.3373L15.1499 26.3212C15.1508 26.3173 15.1513 26.3132 15.1513 26.3092C15.1513 26.3065 15.1515 26.3037 15.1517 26.3011C15.1523 26.2932 15.1525 26.2851 15.1542 26.2774C15.1568 26.266 15.1584 26.2543 15.1589 26.2425L15.1589 26.2129C15.1607 26.1986 15.1607 26.1841 15.1589 26.1698L15.1589 8.07965C15.1636 7.88266 15.1289 7.68672 15.0567 7.50335C14.9846 7.31998 14.8765 7.15288 14.7389 7.01189C14.6012 6.8709 14.4368 6.75886 14.2552 6.68237C14.0736 6.60588 13.8785 6.56647 13.6815 6.56647C13.4844 6.56647 13.2894 6.60588 13.1078 6.68237C12.9262 6.75886 12.7617 6.8709 12.6241 7.01189C12.4864 7.15288 12.3783 7.31998 12.3062 7.50335C12.2341 7.68672 12.1993 7.88266 12.2041 8.07965L12.2041 21.1361C12.2041 21.6248 11.6132 21.8695 11.2676 21.5239C11.0613 21.3174 10.7984 21.1767 10.5121 21.1196C10.2259 21.0626 9.92908 21.0917 9.65937 21.2034C9.38966 21.315 9.15914 21.5042 8.99698 21.7469C8.84154 21.9796 8.75562 22.2515 8.74887 22.5308C8.7484 22.55 8.7653 22.5648 8.78434 22.5623Z" fill="black"/>
</svg>
