<svg width="38" height="38" viewBox="0 0 38 38" fill="none" xmlns="http://www.w3.org/2000/svg">
<g clip-path="url(#clip0_7445_12070)">
<path d="M12.5201 12.6875C11.8611 12.6875 11.2021 13.1268 11.2021 13.7858C11.2021 14.4447 11.8611 14.884 12.5201 14.884C13.179 14.884 13.6183 14.4447 13.6183 13.7858C13.6183 13.0993 13.179 12.6875 12.5201 12.6875ZM21.4435 19.0574C21.0042 19.0574 20.5923 19.5242 20.5923 19.9361C20.5923 20.4028 21.0316 20.8147 21.4435 20.8147C22.1024 20.8147 22.5417 20.3754 22.5417 19.9361C22.5417 19.4967 22.1024 19.0574 21.4435 19.0574ZM18.6154 14.884C19.2744 14.884 19.7137 14.4173 19.7137 13.7858C19.7137 13.1268 19.2744 12.6875 18.6154 12.6875C17.9565 12.6875 17.2975 13.1268 17.2975 13.7858C17.2975 14.4447 17.9565 14.884 18.6154 14.884ZM26.2209 19.0574C25.7816 19.0574 25.3698 19.5242 25.3698 19.9361C25.3698 20.4028 25.8091 20.8147 26.2209 20.8147C26.8799 20.8147 27.3192 20.3754 27.3192 19.9361C27.3192 19.4967 26.8799 19.0574 26.2209 19.0574Z" fill="#28C445"/>
<path d="M18.9451 0.109375C8.4841 0.109375 0 8.59348 0 19.0545C0 29.5154 8.4841 37.9995 18.9451 37.9995C29.4061 37.9995 37.8902 29.5154 37.8902 19.0545C37.8902 8.59348 29.4061 0.109375 18.9451 0.109375ZM15.3483 23.9143C14.25 23.9143 13.3714 23.6946 12.328 23.4475L9.3078 24.9851L10.159 22.3218C7.98988 20.7842 6.67197 18.7799 6.67197 16.3912C6.67197 12.1903 10.5983 8.8955 15.3483 8.8955C19.604 8.8955 23.3656 11.5313 24.1069 15.0732C23.8324 15.0458 23.5578 15.0183 23.2832 15.0183C19.1647 15.0732 15.9249 18.1758 15.9249 22.0198C15.9249 22.6513 16.0347 23.2553 16.1994 23.8594C15.9249 23.8868 15.6228 23.9143 15.3483 23.9143ZM28.198 26.9894L28.8569 29.186L26.4957 27.868C25.6445 28.0877 24.7659 28.3074 23.8873 28.3074C19.7413 28.3074 16.474 25.4519 16.474 21.91C16.4465 18.3955 19.7139 15.54 23.8324 15.54C27.7587 15.54 31.2182 18.423 31.2182 21.9374C31.2182 23.9143 29.9277 25.6715 28.198 26.9894Z" fill="#28C445"/>
</g>
<defs>
<clipPath id="clip0_7445_12070">
<rect width="38" height="38" fill="white"/>
</clipPath>
</defs>
</svg>
