<svg width="52" height="52" viewBox="0 0 52 52" fill="none" xmlns="http://www.w3.org/2000/svg">
<path d="M16 0.5H36C44.5604 0.5 51.5 7.43959 51.5 16V36C51.5 44.5604 44.5604 51.5 36 51.5H16C7.43959 51.5 0.5 44.5604 0.5 36V16C0.5 7.43959 7.43959 0.5 16 0.5Z" stroke="#2E2E2E"/>
<path d="M23.7491 32.1552L24.0293 27.9413L31.7146 21.0475C32.0548 20.7386 31.6446 20.5892 31.1942 20.8582L21.7076 26.8255L17.6048 25.5304C16.7242 25.2814 16.7142 24.6737 17.8049 24.2353L33.786 18.0987C34.5166 17.7699 35.217 18.278 34.9368 19.3938L32.215 32.1552C32.0248 33.0618 31.4744 33.281 30.7139 32.8626L26.571 29.8141L24.5796 31.7368C24.3495 31.966 24.1593 32.1552 23.7491 32.1552Z" fill="black"/>
</svg>
