<svg width="58" height="58" viewBox="0 0 58 58" fill="none" xmlns="http://www.w3.org/2000/svg">
<path d="M28.9162 0.167969C12.9494 0.167969 0 13.1174 0 29.0842C0 45.0509 12.9494 58.0003 28.9162 58.0003C44.8829 58.0003 57.8324 45.0509 57.8324 29.0842C57.8324 13.1174 44.8829 0.167969 28.9162 0.167969ZM23.4263 36.5018C21.75 36.5018 20.409 36.1665 18.8165 35.7894L14.2066 38.1362L15.5058 34.0711C12.1951 31.7243 10.1835 28.6651 10.1835 25.0191C10.1835 18.6073 16.1763 13.5784 23.4263 13.5784C29.922 13.5784 35.6633 17.6015 36.7948 23.0076C36.3757 22.9657 35.9566 22.9237 35.5376 22.9237C29.2514 23.0076 24.3064 27.7431 24.3064 33.6102C24.3064 34.574 24.474 35.496 24.7254 36.418C24.3064 36.4599 23.8454 36.5018 23.4263 36.5018ZM43.039 41.1954L44.0448 44.548L40.4408 42.5365C39.1416 42.8717 37.8006 43.207 36.4595 43.207C30.1315 43.207 25.1445 38.8486 25.1445 33.4425C25.1026 28.0784 30.0896 23.72 36.3757 23.72C42.3685 23.72 47.6488 28.1203 47.6488 33.4844C47.6488 36.5018 45.6792 39.1839 43.039 41.1954Z" fill="#28C445"/>
</svg>
