<svg width="58" height="58" viewBox="0 0 58 58" fill="none" xmlns="http://www.w3.org/2000/svg">
<path d="M38.483 42.3027L43.2411 19.8733C43.6616 17.8992 42.5285 17.1224 41.2339 17.6071L13.2696 28.3848C11.3597 29.1285 11.3929 30.1973 12.9464 30.682L20.0991 32.915L36.7036 22.4605C37.4804 21.9426 38.193 22.2347 37.6109 22.7526L24.1798 34.8891L23.6619 42.2696C24.4056 42.2696 24.7308 41.9464 25.1181 41.557L28.6126 38.1909L35.8626 43.5311C37.1904 44.2747 38.1288 43.8874 38.4851 42.3006L38.483 42.3027ZM58 29C58 45.0204 45.0204 58 29 58C12.9796 58 0 45.0204 0 29C0 12.9796 12.9796 0 29 0C45.0204 0 58 12.9796 58 29Z" fill="#1296DB"/>
</svg>
